<?xml version="1.0" encoding="utf-8"?>
<COLLADA version="1.5.0" xmlns="http://www.collada.org/2008/03/COLLADASchema">
	<asset>
		<contributor>
			<authoring_tool>BrawlCrate</authoring_tool>
		</contributor>
		<created>2022-10-20T21:32:46Z</created>
		<modified>2022-10-20T21:32:46Z</modified>
		<unit meter="0.01" name="centimeter" />
		<up_axis>Y_UP</up_axis>
	</asset>
	<library_images>
		<image id="lm_0-image" name="lm_0">
			<init_from>lm_0.png</init_from>
		</image>
		<image id="lm_1-image" name="lm_1">
			<init_from>lm_1.png</init_from>
		</image>
		<image id="mario_all-image" name="mario_all">
			<init_from>mario_all.png</init_from>
		</image>
		<image id="mario_eye.0-image" name="mario_eye.0">
			<init_from>mario_eye.0.png</init_from>
		</image>
	</library_images>
	<library_materials>
		<material id="mario_all_tx" name="mario_all_tx">
			<instance_effect url="#mario_all_tx-fx" />
		</material>
		<material id="mario_eye_tx" name="mario_eye_tx">
			<instance_effect url="#mario_eye_tx-fx" />
		</material>
	</library_materials>
	<library_effects>
		<effect id="mario_all_tx-fx" name="mario_all_tx">
			<profile_COMMON>
				<newparam sid="mario_all-surface">
					<surface type="2D">
						<init_from>mario_all-image</init_from>
					</surface>
				</newparam>
				<newparam sid="mario_all-sampler">
					<sampler2D>
						<source>mario_all-surface</source>
						<instance_image url="#mario_all-image" />
						<wrap_s>WRAP</wrap_s>
						<wrap_t>WRAP</wrap_t>
						<minfilter>LINEAR</minfilter>
						<magfilter>LINEAR</magfilter>
					</sampler2D>
				</newparam>
				<newparam sid="lm_0-surface">
					<surface type="2D">
						<init_from>lm_0-image</init_from>
					</surface>
				</newparam>
				<newparam sid="lm_0-sampler">
					<sampler2D>
						<source>lm_0-surface</source>
						<instance_image url="#lm_0-image" />
						<wrap_s>CLAMP</wrap_s>
						<wrap_t>CLAMP</wrap_t>
						<minfilter>LINEAR</minfilter>
						<magfilter>LINEAR</magfilter>
					</sampler2D>
				</newparam>
				<newparam sid="lm_1-surface">
					<surface type="2D">
						<init_from>lm_1-image</init_from>
					</surface>
				</newparam>
				<newparam sid="lm_1-sampler">
					<sampler2D>
						<source>lm_1-surface</source>
						<instance_image url="#lm_1-image" />
						<wrap_s>CLAMP</wrap_s>
						<wrap_t>CLAMP</wrap_t>
						<minfilter>LINEAR</minfilter>
						<magfilter>LINEAR</magfilter>
					</sampler2D>
				</newparam>
				<technique sid="COMMON">
					<phong>
						<diffuse>
							<texture texture="mario_all-sampler" texcoord="TEXCOORD0" />
						</diffuse>
					</phong>
				</technique>
			</profile_COMMON>
		</effect>
		<effect id="mario_eye_tx-fx" name="mario_eye_tx">
			<profile_COMMON>
				<newparam sid="mario_eye.0-surface">
					<surface type="2D">
						<init_from>mario_eye.0-image</init_from>
					</surface>
				</newparam>
				<newparam sid="mario_eye.0-sampler">
					<sampler2D>
						<source>mario_eye.0-surface</source>
						<instance_image url="#mario_eye.0-image" />
						<wrap_s>MIRROR</wrap_s>
						<wrap_t>MIRROR</wrap_t>
						<minfilter>LINEAR</minfilter>
						<magfilter>LINEAR</magfilter>
					</sampler2D>
				</newparam>
				<newparam sid="lm_0-surface">
					<surface type="2D">
						<init_from>lm_0-image</init_from>
					</surface>
				</newparam>
				<newparam sid="lm_0-sampler">
					<sampler2D>
						<source>lm_0-surface</source>
						<instance_image url="#lm_0-image" />
						<wrap_s>CLAMP</wrap_s>
						<wrap_t>CLAMP</wrap_t>
						<minfilter>LINEAR</minfilter>
						<magfilter>LINEAR</magfilter>
					</sampler2D>
				</newparam>
				<newparam sid="lm_1-surface">
					<surface type="2D">
						<init_from>lm_1-image</init_from>
					</surface>
				</newparam>
				<newparam sid="lm_1-sampler">
					<sampler2D>
						<source>lm_1-surface</source>
						<instance_image url="#lm_1-image" />
						<wrap_s>CLAMP</wrap_s>
						<wrap_t>CLAMP</wrap_t>
						<minfilter>LINEAR</minfilter>
						<magfilter>LINEAR</magfilter>
					</sampler2D>
				</newparam>
				<technique sid="COMMON">
					<phong>
						<diffuse>
							<texture texture="mario_eye.0-sampler" texcoord="TEXCOORD0" />
						</diffuse>
					</phong>
				</technique>
			</profile_COMMON>
		</effect>
	</library_effects>
	<library_geometries>
		<geometry id="polygon0" name="polygon0">
			<mesh>
				<source id="polygon0_Positions">
					<float_array id="polygon0_PosArr" count="1032">16.7754 62.50796 31.05862 26.42715 55.55295 30.08563 23.61716 55.73112 32.38005 24.86713 46.18527 30.67472 19.82828 46.60553 32.69143 15.66078 41.82892 29.73736 8.19689 45.62383 28.34241 9.863304 45.10753 26.1512 5.926312 56.80706 27.04886 7.164108 56.75039 24.75659 11.08531 63.34624 27.21895 16.99422 63.56989 25.56955 21.21233 63.38794 28.66175 26.05224 55.81326 27.53555 -13.67285 69.57168 1.67312 -25.40341 63.64991 5.355752 -12.58824 62.59974 -4.473191 -21.63512 57.07317 -0.647124 -21.16886 53.15874 0.79053 -12.53673 47.49466 9.971845 -21.52695 56.58255 12.19509 -10.07926 52.57031 15.69062 -17.55478 69.09113 10.24468 -16.95649 60.6735 17.90739 -26.07294 53.78992 16.92764 -17.89632 60.34357 12.40436 -16.96871 62.1577 27.87472 -9.06784 56.70564 27.49997 -11.09964 46.81696 28.51684 -8.876499 57.2942 30.61937 -5.926313 56.80706 27.04886 -10.90745 47.06367 31.42685 -8.196892 45.62383 28.34241 -15.66078 41.82892 29.73737 -9.863306 45.10753 26.1512 -21.114 44.86185 27.7794 -16.99422 63.56989 25.56954 -26.05224 55.81326 27.53554 -21.21233 63.38794 28.66175 -26.42716 55.55295 30.08562 -16.7754 62.50795 31.05861 -23.61717 55.73112 32.38005 16.17286 61.28762 22.41031 16.23143 49.40328 28.87968 0 65.16692 24.86426 0 52.29628 34.943 -16.23143 49.40328 28.87968 0 39.63958 35.83236 -12.73036 35.18826 29.6719 0 31.77713 31.52781 0 25.4522 23.61789 12.73036 35.18826 29.6719 14.17728 47.73827 17.65413 21.83012 38.07056 17.10719 -18.70976 16.73819 49.02499 -8.483574 14.06273 46.49343 -7.719901 16.58596 41.15831 -1.01486 18.6169 51.72333 0.480391 24.83883 45.14126 -1.972327 43.91418 63.35345 -1.910029 38.21021 53.09029 -7.358777 48.58646 60.72289 -11.93609 44.28412 52.81866 -18.88618 48.2415 59.75605 -22.4936 32.24601 49.57274 -25.02713 43.22425 61.41976 4.902061 87.85076 26.96625 15.96526 89.94881 21.85833 6.257848 84.29864 28.72581 15.06357 83.09834 24.54042 9.381734 77.30277 27.01514 10.98787 76.67668 25.50394 8.214823 75.1111 26.60653 15.80627 74.79839 20.97032 4.71409 68.53606 25.3807 12.56997 70.18523 15.32947 3.213918 66.04146 16.46503 -3.047454 47.91067 35.01875 -14.23359 47.7273 17.65349 -14.30644 51.85501 32.90377 -21.84676 38.02855 17.10252 -22.41208 39.21278 36.19901 -19.46898 27.62069 20.66936 -17.33397 27.58012 36.87694 -9.612542 25.25158 25.94646 -1.394578 31.10197 37.18943 0 23.37868 8.973526 -8.266928 69.20436 1.771569 -14.65414 68.39357 11.77588 0 71.86342 10.92364 14.65414 68.39357 11.77588 21.52695 56.58255 12.19509 24.09874 48.66916 14.08707 21.16886 53.15874 0.790531 22.31957 44.33941 3.304099 13.60116 82.67333 26.04044 16.33869 83.19223 23.30449 0 83.18321 31.38811 17.52339 86.81349 21.81064 16.22952 90.29754 21.82207 13.33265 85.03541 28.4606 6.265645 81.24091 32.48032 -6.265645 81.24091 32.48032 0 78.13073 31.21687 -3.709469 77.167 29.82896 -2.061538 32.46197 29.78258 -8.064598 21.30951 38.79025 -17.84065 29.66327 29.51063 -19.23098 23.03708 40.94967 -13.77466 49.06785 44.10113 -4.902061 87.85076 26.96625 -6.257846 84.29864 28.72581 -15.96526 89.94881 21.85833 -15.06357 83.09834 24.54042 -16.50629 83.2379 22.21119 -15.24924 81.02334 23.6479 -20.83447 83.65654 15.22346 -15.80627 74.79839 20.97032 -18.66638 75.0165 12.56327 -12.56997 70.18523 15.32947 18.76485 16.7698 49.02993 22.48266 32.57014 66.05719 22.48526 32.29295 49.57795 24.96851 43.28254 61.4251 18.80796 48.27458 59.75803 13.348 46.44833 68.34322 7.278799 48.57269 60.71944 1.910186 43.87876 63.34792 1.875926 38.17362 53.08529 -0.456299 24.79186 45.13642 18.9173 81.72085 -0.071432 20.31863 92.1262 -3.490192 11.0936 78.64314 -11.99399 1E-06 87.38155 -19.1957 0 78.08447 -15.30711 -11.0936 78.64314 -11.99399 -3.700956 70.9527 -17.08312 -9.962967 71.91029 -14.68709 0 70.94868 -4.874652 -12.38156 73.88497 -3.050742 -8.890351 91.04291 33.51176 -8.721783 87.2898 39.95807 -4.403489 93.68445 40.52722 0 87.94876 43.75608 4.403489 93.68445 40.52722 8.721783 87.2898 39.95807 8.890353 91.04291 33.51176 -22.49985 32.52161 66.052 -18.25832 37.61301 71.74678 -13.42284 46.43666 68.34363 -8.7717 37.92616 72.43849 -3.526604 33.14791 67.43542 23.98933 55.54062 29.71635 16.96871 62.1577 27.87473 26.07294 53.78992 16.92764 17.89632 60.34358 12.40436 16.95649 60.67351 17.90739 10.07926 52.57031 15.69062 17.55478 69.09113 10.24468 9.067839 56.70565 27.49997 12.49359 45.53756 14.34132 11.09964 46.81696 28.51684 22.33787 45.29576 16.43704 20.18745 46.40392 30.07842 -18.9173 81.72085 -0.071433 -21.66596 80.18227 5.419483 -16.41235 72.96813 5.785637 0 68.44064 4.949937 16.41235 72.96813 5.785637 13.67285 69.57168 1.67312 8.266929 69.20436 1.77157 12.58824 62.59974 -4.473191 0 66.69939 -7.732384 0 59.16683 -8.25756 -12.304 50.18004 -5.392972 -22.31957 44.33941 3.304098 9.643829 25.2443 25.94597 19.49302 27.65326 20.6734 13.18177 28.15324 2.216371 20.75922 34.23829 6.161234 12.41923 35.83087 -3.683876 12.304 50.18004 -5.392972 -13.45762 129.0203 12.44124 -15.53655 122.5676 20.2263 -26.41172 113.0408 8.542467 -28.13618 104.4114 8.388124 -24.14609 101.6015 -14.30296 -26.37926 97.12502 -0.373652 -16.54388 92.27596 -16.38478 -20.31863 92.12621 -3.490193 -19.94752 75.56874 -8.827187 -15.34308 73.81382 -12.57049 10.90745 47.06367 31.42685 8.876497 57.2942 30.61937 -7.164109 56.75039 24.75659 -11.08531 63.34624 27.21895 8.105968 21.29677 38.78976 2.061727 32.42386 29.77822 17.85222 29.68937 29.51389 17.35057 27.60473 36.87998 22.38161 39.25793 36.20389 -15.03835 110.2706 21.53715 0 115.273 25.89613 -17.81309 107.1326 31.57445 0 111.9021 40.37653 0 108.0643 23.60005 17.81309 107.1326 31.57445 13.51411 105.8907 20.02031 18.80018 101.0992 13.9609 25.40341 63.64991 5.355752 21.63512 57.07317 -0.647121 22.65676 47.48621 9.874718 19.26421 23.07 40.95425 13.70049 49.07863 44.10063 14.22615 51.86693 32.90424 2.982314 47.8769 35.01411 -13.60116 82.67333 26.04044 -16.33869 83.19223 23.30449 -17.52339 86.81349 21.81064 -13.33265 85.03541 28.4606 -16.22952 90.29754 21.82207 -14.78674 108.5294 -19.2762 1E-06 98.48492 -28.735 1E-06 105.7436 -26.48065 14.78674 108.5294 -19.2762 9.949736 127.7788 0.20677 -9.949733 127.7788 0.206769 1E-06 133.4601 15.99534 8.729626 37.91933 72.43672 3.506377 33.1193 67.43166 1.061189 18.57669 51.7198 7.779397 16.57208 41.15811 -22.65676 47.48621 9.874712 -12.49359 45.53755 14.34132 3.700958 70.9527 -17.08312 9.962968 71.91029 -14.68709 12.38157 73.88497 -3.050741 16.54388 92.27596 -16.38478 24.14609 101.6015 -14.30296 26.37926 97.12502 -0.373651 28.13618 104.4114 8.388124 21.52735 96.30841 4.559002 -22.08878 119.5293 4.726189 15.03836 110.2706 21.53715 15.53656 122.5676 20.2263 26.41172 113.0408 8.542468 13.45762 129.0203 12.44124 22.08878 119.5293 4.72619 21.66596 80.18227 5.419484 26.22075 79.9932 0.581334 24.85804 86.27864 -6.030907 30.33838 94.43793 -4.217276 1E-06 89.84056 -24.13611 -30.33838 94.43793 -4.217277 -24.85804 86.27864 -6.030908 -26.22075 79.9932 0.581333 -21.52735 96.30841 4.559001 -20.96905 90.05039 4.653886 -18.80018 101.0992 13.9609 -19.3241 90.47707 13.4254 -15.57473 100.8739 20.84571 -15.77 95.41138 21.35202 11.8773 44.28828 52.81777 -23.23698 36.04521 19.16101 -24.09874 48.66916 14.08707 -16.17286 61.28762 22.41031 1.396834 31.0617 37.1848 -3.213917 66.04146 16.46503 -4.714089 68.53606 25.3807 -10.98787 76.67668 25.50394 -9.381734 77.30277 27.01514 -12.41923 35.83087 -3.683876 -20.75922 34.23829 6.161233 19.94752 75.56874 -8.827186 15.34308 73.81382 -12.57049 -4.318294 80.89898 40.22627 4.318295 80.89898 40.22627 15.96801 69.43822 49.69225 6.577646 66.85571 51.72652 17.36497 68.99836 40.66265 2.434056 63.57548 43.44469 5.93861 66.67249 35.65288 -1.212355 61.18726 40.67712 0.078407 61.43569 33.84381 11.35433 45.3211 53.78514 20.20934 44.74546 51.72963 8.370653 43.17036 46.80924 21.51642 43.68975 41.95224 9.856473 42.69915 37.68179 1.883368 55.81406 46.41999 12.53673 47.49466 9.971851 -13.18177 28.15324 2.21637 0 25.32996 1.318443 21.114 44.86185 27.7794 20.83447 83.65654 15.22346 20.96905 90.05039 4.653886 19.3241 90.47707 13.42541 15.57473 100.8739 20.84571 23.23698 36.04521 19.16101 8.550837 14.05248 46.49384 0 92.15904 26.35227 0 94.79871 33.70512 16.50629 83.2379 22.21119 15.24924 81.02334 23.6479 -19.82828 46.60553 32.69143 -24.86714 46.18527 30.67472 6.929595 79.90114 0.369263 0 79.64318 -6.719534 8.924444 58.51019 54.67636 18.66638 75.0165 12.56327 30.15707 86.39947 -4.014996 0 128.0673 25.87205 -17.36498 68.99837 40.66265 -20.32046 60.12944 52.39849 -20.20935 44.74547 51.72963 11.97521 79.25578 26.8179 -15.96801 69.43822 49.69224 -6.577648 66.85571 51.72652 -8.924447 58.5102 54.67635 -11.35434 45.3211 53.78515 1.212353 61.18726 40.67712 -1.883371 55.81406 46.41998 -9.856476 42.69915 37.68179 -8.370657 43.17036 46.80924 0 80.51973 31.4181 -13.51411 105.8907 20.02031 -22.33787 45.29576 16.43704 -23.98933 55.54062 29.71635 -20.18745 46.40392 30.07842 -0.078408 61.43569 33.84381 -5.938611 66.67249 35.65287 -2.434057 63.57548 43.44469 -11.97521 79.25578 26.8179 -7.347785 78.7053 28.71867 -30.15707 86.39947 -4.014997 -21.51642 43.68975 41.95224 15.77 95.41138 21.35202 18.21777 37.64476 71.74948 20.32046 60.12943 52.39849 -8.214823 75.1111 26.60653 3.709469 77.167 29.82896 7.347785 78.7053 28.71867 0 80.42558 8.771549 -6.929594 79.90114 0.369262</float_array>
					<technique_common>
						<accessor source="#polygon0_PosArr" count="344" stride="3">
							<param name="X" type="float" />
							<param name="Y" type="float" />
							<param name="Z" type="float" />
						</accessor>
					</technique_common>
				</source>
				<source id="polygon0_Normals">
					<float_array id="polygon0_NormArr" count="1185">0.1233521 0.7203369 0.6826172 0.8127441 0.3297119 0.4803467 0.5428467 0.1652832 0.8233643 0.7833252 -0.5233154 0.3355103 0.04589844 -0.5301514 0.8466797 0.005126953 -0.9845581 0.1749268 -0.6591797 -0.6386108 0.3970337 -0.2224121 -0.4924316 -0.8414307 -0.9559937 0.1779175 0.2332764 -0.5049438 0.2182617 -0.835144 -0.4598389 0.8851318 0.07086182 0.1448364 0.3464355 -0.9268188 0.4475708 0.8875732 0.1091309 0.7628784 0.1047363 -0.6380005 -0.1588135 0.9356079 -0.3153076 -0.7773438 0.5158081 -0.3601685 -0.3634644 0.2971802 -0.8829346 -0.8033447 -0.2503052 -0.5404053 -0.7993774 0.1984863 -0.5671387 0.6949463 -0.2461548 -0.6756592 -0.5713501 0.7999878 -0.1833496 0.8878174 0.2583008 -0.3807983 -0.243042 0.8944092 0.3753662 0.0824585 -0.3081665 0.9477539 -0.9896851 0.1040649 0.09869385 -0.5140991 -0.1949463 -0.8352661 -0.02435303 0.9866333 -0.1611328 0.9187622 0.3279419 -0.2197266 0.6309814 -0.7753296 0.02630615 0.6608276 0.3509521 0.6634521 0.9559937 0.1779175 0.2333374 0.5539551 -0.3209839 0.7681885 0.7796631 -0.5822754 0.2304688 0.0579834 -0.9550781 0.2905273 0.2224121 -0.4924316 -0.8414307 -0.3343506 -0.4627686 -0.8209839 -0.1448364 0.3464355 -0.9268188 -0.7628784 0.1047363 -0.6380005 -0.4475708 0.8875732 0.1091309 -0.8127441 0.3297119 0.4803467 -0.1233521 0.7203369 0.6826172 -0.5429077 0.1652832 0.8233643 0.6820679 0.5247192 0.5093384 0.5953369 0.1993408 0.7783203 0 0.7360229 0.6769409 0 0.3581543 0.9336548 -0.5953369 0.1993408 0.7783203 0 -0.1661377 0.986084 -0.3348389 -0.8547974 0.3964233 0 -0.6422729 0.7664795 0 -0.9721069 -0.234436 0.3346558 -0.8553467 0.3954468 -0.1669312 0.3808594 -0.9094238 0.8676147 0.04168701 -0.4954834 -0.7547607 -0.5768433 -0.3123169 0.1721191 -0.8997803 -0.4009399 0.2133789 -0.7348022 -0.6437988 0.9196167 -0.3876343 -0.06317139 0.9395752 -0.1865845 -0.2869263 0.8759766 0.3757935 0.3024292 0.7420044 0.5484619 -0.385498 0.3529663 0.921936 -0.1596069 0.01025391 0.7556152 -0.6549683 -0.3681641 0.8889771 -0.2723999 -0.93396 0.09075928 -0.3457031 -0.8677979 0.4158325 0.2719727 0.8041382 0.5581055 0.2046509 0.647522 0.2090454 0.7328491 0.8793945 -0.302124 0.3679199 0.6577148 0.005737305 0.7532349 0.4642334 -0.2457886 0.8509521 0.5679932 -0.3457031 0.7468872 0.4395752 -0.3853149 0.8113403 0.7277832 -0.4689941 0.5003662 0.3417358 -0.7294922 0.5924683 0.5422974 -0.8308105 0.1251831 0.2244873 -0.9740601 -0.02746582 0.7593384 0.6505127 -0.01623535 0.164917 0.3818359 -0.9094238 -0.4486694 0.8934937 -0.01831055 -0.8665161 0.03155518 -0.4981689 -0.9857788 0.1657715 0.02752686 -0.7102051 -0.6984253 0.08880615 -0.1983643 -0.7526245 0.6278076 -0.05358887 -0.9936523 0.09869385 -0.3745117 -0.711853 0.5941772 6.103516E-05 -1 0.001281738 -0.463623 0.8345947 -0.2975464 -0.2800293 0.888855 0.3626709 0 0.8996582 0.4366455 0.2800293 0.888855 0.3626709 0.5713501 0.7999878 -0.1833496 0.9755859 0.1711426 0.1377563 0.7993774 0.1984863 -0.5671387 0.868042 -0.1358032 -0.4776001 0.5884399 -0.7615356 0.2716675 0.4674683 -0.8811035 -0.07116699 0 0.7955933 -0.605896 0.7349854 -0.1583862 -0.6593018 0.3515015 0.8839111 0.3084106 0.6809082 0.0916748 0.7265625 0.2810059 -0.2772217 0.9188232 -0.2810059 -0.2772217 0.9188232 0 -0.53302 0.8461304 -0.3056641 -0.6466064 0.6989136 0.9683838 -0.1540527 -0.196228 0.4547729 -0.3185425 -0.831665 0.1806641 -0.777832 -0.6019287 -0.2311401 -0.3039551 -0.9241943 -0.7997437 -0.4963379 -0.3377075 -0.930481 0.2977295 0.2133789 -0.2479248 0.8848877 0.3943481 -0.1602173 0.850708 0.5006104 0.6998291 0.6550293 0.2849121 -0.8041382 0.5581055 0.2046509 -0.8793945 -0.302124 0.3679199 -0.647522 0.2090454 0.7328491 -0.6577148 0.005737305 0.7532349 -0.8505249 -0.02514648 0.5253296 -0.7355957 -0.2110596 0.6436768 -0.9487305 -0.005554199 0.31604 -0.7277832 -0.4689941 0.5003662 -0.8179321 -0.5604248 0.1300049 -0.5422974 -0.8308105 0.1251831 0.7572632 -0.5737915 -0.3118896 0.9692993 -0.1411133 0.201355 0.9337158 0.09454346 -0.3452759 0.8659668 0.4193726 0.2723389 0.364624 0.8904419 -0.2723389 0.05718994 0.7510986 0.6577148 -0.3566284 0.9204712 -0.1598511 -0.8776245 0.3722534 0.3019409 -0.7440186 0.5454102 -0.3859253 -0.9387207 -0.1904907 -0.2873535 0.9685059 -0.08758545 -0.2329712 0.7428589 -0.08990479 -0.6633911 0.5114746 0.09741211 -0.8537598 0 -0.1602783 -0.9870605 0 -0.1940918 -0.980957 -0.5114746 0.09741211 -0.8537598 0.09082031 -0.3308716 -0.93927 -0.6359253 -0.680481 -0.3640137 0 -0.9989624 -0.04498291 -0.3598633 -0.9284668 0.09161377 -0.7950439 0.5371704 -0.2816162 -0.8609009 -0.09246826 0.5003052 -0.3881836 0.7576294 0.5246582 0 -0.002319336 1 0.3881836 0.7576294 0.5246582 0.8609009 -0.09246826 0.5003052 0.7950439 0.5371704 -0.2816162 -0.968811 -0.1450806 0.2008667 -0.5224609 0.3598633 0.7730103 -0.06060791 0.7507935 0.6577148 0.399292 0.4026489 0.8236694 0.8934326 0.04058838 0.4473267 0.9703979 0.2090454 0.1211548 0.02435303 0.9866333 -0.1611328 0.9896851 0.1040649 0.09869385 0.5140991 -0.1949463 -0.8352661 -0.0824585 -0.3081665 0.9477539 -0.8878174 0.2583008 -0.3807983 0.243042 0.8944702 0.3753662 -0.9187622 0.3279419 -0.2197266 -0.6091309 -0.7801514 -0.1427002 -0.6309814 -0.7753296 0.02630615 0.5498047 -0.8335571 -0.05413818 0.5181885 -0.8399048 0.1613159 -0.7497559 -0.4362183 -0.4975586 -0.9460449 -0.3237915 -0.01116943 -0.6155396 -0.6843872 -0.3908081 -0.5014038 -0.8435669 -0.1921997 0 -0.9680786 -0.2506714 0.5014038 -0.8435669 -0.1921997 0.1588135 0.9356079 -0.3153076 0.463623 0.8345947 -0.2975464 0.3609619 0.3041992 -0.8815918 0 0.3652954 -0.9309082 0 -0.008300781 -0.999939 -0.3598022 -0.09503174 -0.9281616 -0.868042 -0.1358032 -0.4776001 0.05645752 -0.9935303 0.09832764 0.7128296 -0.6954956 0.09039307 0.407959 -0.8314819 -0.3771973 0.8239136 -0.4227905 -0.3773804 0.390625 -0.3477783 -0.8522949 0.3598022 -0.09503174 -0.9281616 -0.5855713 0.7938232 0.1642456 -0.6740112 0.3461914 0.6525269 -0.90271 0.4151001 0.1134033 -0.8655396 -0.2328491 0.4434204 -0.8604126 0.065979 -0.505249 -0.8345947 -0.5472412 -0.06335449 -0.5529175 -0.6790771 -0.4828491 -0.5050659 -0.8485107 -0.1577148 0 -0.9605713 -0.2779541 -0.7428589 -0.08990479 -0.6633911 -0.9685059 -0.08758545 -0.2329712 -0.9198608 -0.2005005 -0.3370361 0.01470947 -0.7776489 -0.62854 -0.6097412 -0.3898315 0.6901245 -0.6608276 0.3509521 0.6634521 0.5049438 0.2182617 -0.835144 0.4598389 0.8851318 0.07092285 -0.9676514 -0.15802 -0.1966553 -0.1771851 -0.7786255 -0.6019287 -0.453064 -0.3204956 -0.8318481 0.2327881 -0.3031616 -0.9240723 0.2011719 -0.7518311 0.6279297 0.9851074 0.1697998 0.02801514 -0.6734009 0.7379761 0.04455566 0 0.9769287 0.213501 -0.6309204 -0.3756714 0.678833 0 -0.1177368 0.993042 0 -0.9823608 0.1868286 0.6309204 -0.3756714 0.678833 -0.296936 -0.9313965 0.2105713 0.7040405 -0.6588135 0.2651367 0.7773438 0.5158081 -0.3601685 0.8033447 -0.2503052 -0.5404053 0.574585 -0.6982422 -0.427063 0.8018799 -0.493103 -0.3372803 0.9291992 0.3015137 0.2138062 0.2441406 0.8859253 0.3944092 0.4450073 0.8953247 -0.01818848 -0.7617188 0.6477051 -0.01605225 -0.5884399 -0.7615356 0.2716675 -0.4674683 -0.8811035 -0.07116699 -0.7349854 -0.1583862 -0.6593018 -0.6809082 0.0916748 0.7265625 -0.3515015 0.8839111 0.3084106 -0.4025269 0.5932617 -0.6971436 0 -0.09619141 -0.9953613 0 0.5713501 -0.8206787 0.4025269 0.5932617 -0.6971436 0.3168335 0.8529663 -0.414856 -0.3168335 0.8529663 -0.414856 0 0.9989624 0.04498291 -0.4013062 0.401123 0.8234253 -0.8937988 0.03704834 0.4468994 -0.9180298 -0.3914185 -0.0635376 -0.210083 -0.7357788 -0.6438599 -0.2279053 -0.4237061 -0.8766479 0.6126709 -0.5360718 -0.5806885 -0.574585 -0.6982422 -0.427063 0.6091309 -0.7801514 -0.1427002 -0.09082031 -0.3308716 -0.93927 0.6359253 -0.680481 -0.3640137 0.3598633 -0.9284668 0.09161377 0.5529175 -0.6790771 -0.4828491 0.8604126 0.065979 -0.505249 0.8345947 -0.5472412 -0.06335449 0.8655396 -0.2328491 0.4434204 0.5571289 -0.6798096 0.4769287 0.5648804 -0.5342407 0.6288452 -0.7351074 0.6175537 -0.2797852 0.5026855 -0.06274414 0.8621826 0.6740112 0.3461914 0.6525269 0.90271 0.4151001 0.1134033 0.5855713 0.7938232 0.1642456 0.7351074 0.6175537 -0.2797852 -0.2132568 -0.9632568 -0.163147 -0.01708984 -0.8397217 -0.5427856 -0.3651733 -0.7069702 -0.6056519 -0.05957031 -0.3067627 -0.9498901 -0.003173828 0.348999 -0.9371338 -0.2090454 0.6871948 -0.6957397 0 -0.722168 -0.6917114 0.5050659 -0.8485107 -0.1577148 0.2090454 0.6871948 -0.6957397 0.05957031 -0.3067627 -0.9498901 0.3651733 -0.7069702 -0.6056519 0.01708984 -0.8397217 -0.5427856 0.2132568 -0.9632568 -0.163147 -0.02502441 -0.7359009 0.6765747 -0.7039795 -0.03424072 0.7094116 -0.852478 -0.06817627 0.5183716 -0.8658447 0.04754639 0.4981079 -0.9359131 0.09899902 0.3380737 -0.9395752 0.1256714 0.3184204 -0.6065674 0.2008667 0.7692261 0.1564941 0.8513794 0.5006104 -0.7025757 0.6522217 0.2845459 -0.9142456 -0.2998657 0.272522 -0.9755859 0.1711426 0.1377563 -0.6820679 0.5247192 0.5093384 0.3738403 -0.7125244 0.59375 -0.2244873 -0.9740601 -0.02746582 -0.3417358 -0.7294922 0.5924683 -0.5679932 -0.3457031 0.7468872 -0.4642334 -0.2457886 0.8509521 -0.390625 -0.3477783 -0.8522949 -0.8238525 -0.4228516 -0.3774414 0.9198608 -0.2005005 -0.3370361 -0.01470947 -0.7776489 -0.62854 -0.4249268 -0.8022461 0.4193115 0.4249268 -0.8022461 0.4193115 0.3410034 0.821167 0.4576416 -0.4771729 0.640625 0.6015625 0.3007813 0.9403076 -0.1593018 -0.6448975 0.7184448 0.2605591 -0.3551636 0.8320923 -0.4260254 -0.9768066 0.1945801 0.08917236 -0.6815796 0.1633911 -0.7132568 -0.2788086 -0.4113159 0.8677979 0.6506348 -0.5880737 0.4805298 -0.3662109 -0.9098511 0.1951294 0.550293 -0.8319092 -0.07165527 -0.3656616 -0.871582 -0.3265381 0.4191284 -0.7944946 -0.4394531 -0.6593018 -0.5667114 -0.4941406 -0.2583618 0.242981 -0.9349976 -0.9268188 -0.2019043 0.3165283 -0.6949463 -0.2461548 -0.6756592 -0.4073486 -0.8317261 -0.3771973 0 -0.7631226 -0.6463013 0.3343506 -0.4627686 -0.8209839 0.9460449 -0.3237915 -0.01116943 0.9487305 -0.005554199 0.31604 0.8658447 0.04754639 0.4981079 0.9395752 0.1256714 0.3184204 0.9359131 0.09899902 0.3380737 0.6065674 0.2008667 0.7692261 0.9145508 -0.298584 0.2728882 -0.1682739 -0.9005127 -0.4009399 0 0.989563 -0.144104 0.8505249 -0.02514648 0.5253296 0.7355957 -0.2110596 0.6436768 -0.1571655 -0.4195557 0.894043 -0.7833252 -0.5233154 0.3355103 -0.6102295 -0.5385132 -0.5810547 0.2300415 -0.4226685 -0.8765869 0.9907227 0.131897 -0.03338623 0 0.0447998 -0.9990234 -0.3359375 0.04962158 0.9406128 0.8179321 -0.5604248 0.1300049 0.6155396 -0.6843872 -0.3908081 0.7497559 -0.4362183 -0.4975586 0.7039795 -0.03424072 0.7094116 0.6890259 -0.006164551 0.7246704 0.6942139 0.04071045 0.7186279 0.713501 0.09130859 0.6946411 -0.5026855 -0.06274414 0.8621826 0 0.5018311 0.8649902 -0.1984863 0.680542 -0.7053223 -0.3007813 0.9403076 -0.1593018 -0.9898682 0.1184692 -0.07836914 -0.6179199 0.2574463 0.7429199 -0.6506348 -0.5880737 0.4805298 0.6275635 -0.491333 0.6039429 -0.3410034 0.821167 0.4576416 0.4771729 0.640625 0.6015625 0.3359375 0.04962158 0.9406128 0.2788086 -0.4113159 0.8677979 0.9768066 0.1945801 0.08917236 0.6593018 -0.5667114 -0.4941406 0.9268188 -0.2019043 0.3165283 0.3656616 -0.871582 -0.3265381 0.3662109 -0.9098511 0.1951294 0 -0.8956909 0.4447021 0.296936 -0.9313965 0.2105713 -0.7040405 -0.6588135 0.2651367 -0.5498047 -0.8335571 -0.05413818 -0.9703979 0.2090454 0.1211548 -0.5181885 -0.8399048 0.1613159 0.6815796 0.1633911 -0.7132568 0.3551636 0.8320923 -0.4260254 0.6448975 0.7184448 0.2605591 0.1984863 0.680542 -0.7053223 -0.6275635 -0.491333 0.6039429 -0.3966675 -0.7042236 0.5888062 -0.3374634 -0.3716431 -0.8648682 -0.550293 -0.8319092 -0.07165527 -0.4191284 -0.7944946 -0.4394531 0.2583618 0.242981 -0.9349976 0.3374634 -0.3716431 -0.8648682 -0.5571289 -0.6798096 0.4769287 -0.5648804 -0.5342407 0.6288452 0.852478 -0.06817627 0.5183716 -0.01306152 0.7554932 -0.6550293 0.5206299 0.3620605 0.7731934 0.6179199 0.2574463 0.7429199 0.9898682 0.1184692 -0.07836914 0.02770996 -0.7357788 0.6766968 -0.4395752 -0.3853149 0.8113403 0.6734009 0.7379761 0.04455566 -0.6942139 0.04071045 0.7186279 -0.713501 0.09130859 0.6946411 -0.6890259 -0.006164551 0.7246704 0.3056641 -0.6466064 0.6989136 0.3966675 -0.7042236 0.5888062 0 0.2594604 0.9657593 -0.9907227 0.131897 -0.03338623 -0.6000366 0.3637085 0.7125244 0.6000366 0.3637085 0.7125244</float_array>
					<technique_common>
						<accessor source="#polygon0_NormArr" count="395" stride="3">
							<param name="X" type="float" />
							<param name="Y" type="float" />
							<param name="Z" type="float" />
						</accessor>
					</technique_common>
				</source>
				<source id="polygon0_Colors0">
					<float_array id="polygon0_ColorArr0" count="556">0.4627451 0.4627451 0.4627451 0.4627451 1 1 1 1 0.5686275 0.5686275 0.5686275 0.5686275 0.4509804 0.4509804 0.4509804 0.4509804 0.9686275 0.9686275 0.9686275 0.9686275 0.9843138 0.9843138 0.9843138 0.9843138 0.5254902 0.5254902 0.5254902 0.5254902 0.9137256 0.9137256 0.9137256 0.9137256 0.509804 0.509804 0.509804 0.509804 0.9803922 0.9803922 0.9803922 0.9803922 0.4941177 0.4941177 0.4941177 0.4941177 0.9882354 0.9882354 0.9882354 0.9882354 0.6352941 0.6352941 0.6352941 0.6352941 0.4352942 0.4352942 0.4352942 0.4352942 0.7450981 0.7450981 0.7450981 0.7450981 0.7098039 0.7098039 0.7098039 0.7098039 0.5215687 0.5215687 0.5215687 0.5215687 0.5647059 0.5647059 0.5647059 0.5647059 0.7372549 0.7372549 0.7372549 0.7372549 0.7882354 0.7882354 0.7882354 0.7882354 0.8196079 0.8196079 0.8196079 0.8196079 0.5019608 0.5019608 0.5019608 0.5019608 0.2509804 0.2509804 0.2509804 0.2509804 0.9215687 0.9215687 0.9215687 0.9215687 0.3882353 0.3882353 0.3882353 0.3882353 0.9647059 0.9647059 0.9647059 0.9647059 0.5294118 0.5294118 0.5294118 0.5294118 0.6392157 0.6392157 0.6392157 0.6392157 0.9960785 0.9960785 0.9960785 0.9960785 0.4666667 0.4666667 0.4666667 0.4666667 0.8392158 0.8392158 0.8392158 0.8392158 0.8666667 0.8666667 0.8666667 0.8666667 0.6980392 0.6980392 0.6980392 0.6980392 0.5764706 0.5764706 0.5764706 0.5764706 0.227451 0.227451 0.227451 0.227451 0.5921569 0.5921569 0.5921569 0.5921569 0.7058824 0.7058824 0.7058824 0.7058824 0.3019608 0.3019608 0.3019608 0.3019608 0.7490196 0.7490196 0.7490196 0.7490196 0.2470588 0.2470588 0.2470588 0.2470588 0.2352941 0.2352941 0.2352941 0.2352941 0.3647059 0.3647059 0.3647059 0.3647059 0.254902 0.254902 0.254902 0.254902 0.9490197 0.9490197 0.9490197 0.9490197 0.8117648 0.8117648 0.8117648 0.8117648 0.5450981 0.5450981 0.5450981 0.5450981 0.7960785 0.7960785 0.7960785 0.7960785 0.8000001 0.8000001 0.8000001 0.8000001 0.4705883 0.4705883 0.4705883 0.4705883 0.4196079 0.4196079 0.4196079 0.4196079 0.7607844 0.7607844 0.7607844 0.7607844 0.9019608 0.9019608 0.9019608 0.9019608 0.6 0.6 0.6 0.6 0.3176471 0.3176471 0.3176471 0.3176471 0.4039216 0.4039216 0.4039216 0.4039216 0.5960785 0.5960785 0.5960785 0.5960785 0.9450981 0.9450981 0.9450981 0.9450981 0.7019608 0.7019608 0.7019608 0.7019608 0.7411765 0.7411765 0.7411765 0.7411765 0.7176471 0.7176471 0.7176471 0.7176471 0.2745098 0.2745098 0.2745098 0.2745098 0.4980392 0.4980392 0.4980392 0.4980392 0 0 0 0 0.4784314 0.4784314 0.4784314 0.4784314 0.8078432 0.8078432 0.8078432 0.8078432 0.4745098 0.4745098 0.4745098 0.4745098 0.427451 0.427451 0.427451 0.427451 0.3333333 0.3333333 0.3333333 0.3333333 0.4470589 0.4470589 0.4470589 0.4470589 0.6784314 0.6784314 0.6784314 0.6784314 0.6745098 0.6745098 0.6745098 0.6745098 0.7529413 0.7529413 0.7529413 0.7529413 0.9921569 0.9921569 0.9921569 0.9921569 0.5411765 0.5411765 0.5411765 0.5411765 0.8156863 0.8156863 0.8156863 0.8156863 0.7333333 0.7333333 0.7333333 0.7333333 0.7294118 0.7294118 0.7294118 0.7294118 0.6039216 0.6039216 0.6039216 0.6039216 0.2980392 0.2980392 0.2980392 0.2980392 0.9764706 0.9764706 0.9764706 0.9764706 0.7803922 0.7803922 0.7803922 0.7803922 0.9333334 0.9333334 0.9333334 0.9333334 0.4313726 0.4313726 0.4313726 0.4313726 0.2862745 0.2862745 0.2862745 0.2862745 0.6627451 0.6627451 0.6627451 0.6627451 0.4 0.4 0.4 0.4 0.5803922 0.5803922 0.5803922 0.5803922 0.4392157 0.4392157 0.4392157 0.4392157 0.764706 0.764706 0.764706 0.764706 0.3254902 0.3254902 0.3254902 0.3254902 0.8235295 0.8235295 0.8235295 0.8235295 0.282353 0.282353 0.282353 0.282353 0.2666667 0.2666667 0.2666667 0.2666667 0.7764707 0.7764707 0.7764707 0.7764707 0.572549 0.572549 0.572549 0.572549 0.8470589 0.8470589 0.8470589 0.8470589 0.5882353 0.5882353 0.5882353 0.5882353 0.627451 0.627451 0.627451 0.627451 0.7215686 0.7215686 0.7215686 0.7215686 0.6431373 0.6431373 0.6431373 0.6431373 0.9254903 0.9254903 0.9254903 0.9254903 0.882353 0.882353 0.882353 0.882353 0.2588235 0.2588235 0.2588235 0.2588235 0.5607843 0.5607843 0.5607843 0.5607843 0.3921569 0.3921569 0.3921569 0.3921569 0.7725491 0.7725491 0.7725491 0.7725491 0.7843138 0.7843138 0.7843138 0.7843138 0.5490196 0.5490196 0.5490196 0.5490196 0.8901961 0.8901961 0.8901961 0.8901961 0.3372549 0.3372549 0.3372549 0.3372549 0.6941177 0.6941177 0.6941177 0.6941177 0.2784314 0.2784314 0.2784314 0.2784314 0.8627452 0.8627452 0.8627452 0.8627452 0.4117647 0.4117647 0.4117647 0.4117647 0.8784314 0.8784314 0.8784314 0.8784314 0.372549 0.372549 0.372549 0.372549 0.9725491 0.9725491 0.9725491 0.9725491 0.5137255 0.5137255 0.5137255 0.5137255 0.6235294 0.6235294 0.6235294 0.6235294 0.6196079 0.6196079 0.6196079 0.6196079 0.5568628 0.5568628 0.5568628 0.5568628 0.5529412 0.5529412 0.5529412 0.5529412 0.9058824 0.9058824 0.9058824 0.9058824 0.7568628 0.7568628 0.7568628 0.7568628 0.4156863 0.4156863 0.4156863 0.4156863 0.6901961 0.6901961 0.6901961 0.6901961 0.7686275 0.7686275 0.7686275 0.7686275 0.7137255 0.7137255 0.7137255 0.7137255 0.5843138 0.5843138 0.5843138 0.5843138 0.8509805 0.8509805 0.8509805 0.8509805 0.682353 0.682353 0.682353 0.682353 0.6666667 0.6666667 0.6666667 0.6666667 0.8431373 0.8431373 0.8431373 0.8431373 0.8862746 0.8862746 0.8862746 0.8862746 0.2196079 0.2196079 0.2196079 0.2196079 0.2627451 0.2627451 0.2627451 0.2627451 0.8039216 0.8039216 0.8039216 0.8039216 0.9411765 0.9411765 0.9411765 0.9411765 0.3215686 0.3215686 0.3215686 0.3215686</float_array>
					<technique_common>
						<accessor source="#polygon0_ColorArr0" count="139" stride="4">
							<param name="R" type="float" />
							<param name="G" type="float" />
							<param name="B" type="float" />
							<param name="A" type="float" />
						</accessor>
					</technique_common>
				</source>
				<source id="polygon0_UVs0">
					<float_array id="polygon0_UVArr0" count="766">0.7630005 0.05337524 0.7398376 0.1478271 0.7507324 0.2165527 0.7629395 0.2227478 0.7884827 0.2378845 0.8180237 0.1940613 0.8179016 0.1987915 0.8186951 0.1037598 0.8201294 0.1094055 0.7905579 0.05102539 0.76828 0.05648804 0.7523804 0.06716919 0.7435608 0.9844055 0.7435608 0.9248047 0.7779236 0.9946899 0.7779236 0.9257813 0.8145752 0.9079895 0.813446 0.7278748 0.8626404 0.9036865 0.8474426 0.722168 0.9378052 0.9310303 0.9298096 0.7574463 0.9984131 0.7113342 0.9309998 0.7377625 0.9382019 0.5844116 0.8582153 0.5818176 0.8124084 0.5819397 0.8190918 0.09280396 0.8188171 0.1998901 0.765625 0.2191772 0.6325378 0.6097107 0.6302795 0.4901428 0.5222168 0.6517029 0.5222168 0.4859924 0.5222168 0.3129883 0.6225891 0.3154602 0.5222168 0.2718506 0.5222168 0.261261 0.6203613 0.2870789 0.6810608 0.2850647 0.5048218 0.04293823 0.5047913 0.02075195 0.5285645 0.006713867 0.5048218 0.06033325 0.5399475 0.05334473 0.5465698 0.1958008 0.5571289 0.1341248 0.5587463 0.2026672 0.5708313 0.1610413 0.5591736 0.203125 0.5473022 0.1056213 0.5474243 0.1967468 0.3424988 0.1915894 0.3864746 0.2041016 0.3233337 0.1644592 0.3815308 0.1511841 0.3503418 0.1066895 0.3539734 0.09616089 0.3439331 0.08837891 0.3649292 0.06454468 0.324707 0.03344727 0.3678284 0.03912354 0.3164673 0.00668335 0.9572449 0.4594421 0.9639893 0.3765564 0.9191895 0.4838867 0.9186096 0.3936157 0.8768921 0.5104065 0.8660278 0.3842773 0.844696 0.5048828 0.8233032 0.3911438 0.7910461 0.4754333 0.7403259 0.3833313 0.739563 0.4577332 0.6421204 0.8431396 0.5871582 0.8354797 0.6453552 0.758606 0.5222168 0.8081055 0.6879578 0.5769348 0.6862488 0.488678 0.7366943 0.5541687 0.7357483 0.4287415 0.6198425 0.1465454 0.59729 0.1366577 0.7318115 0.1420288 0.5875549 0.07919312 0.5982056 0.02484131 0.6220398 0.1112366 0.6802063 0.1730347 0.7318115 0.2207642 0.7012634 0.2348938 0.7414551 0.2588806 0.7404175 0.3502197 0.7851257 0.2593689 0.8241577 0.3572693 0.8362122 0.2583313 0.8771667 0.2590637 0.9184265 0.3277893 0.9177551 0.2583313 0.9584961 0.2582397 0.3894653 0.1502991 0.3773804 0.1295166 0.413208 0.1476746 0.4013062 0.07571411 0.5050354 0.1799927 0.5380249 0.2439575 0.08508301 0.1221008 0.09109497 0.2372131 0.05154419 0.09390259 0.003997803 0.1925049 0.003997803 0.08929443 0.01986694 0.01226807 0.04669189 0.02163696 0.003997803 0.00668335 0.05706787 0.03793335 0.236908 0.5174255 0.2492065 0.5484314 0.2483521 0.5868835 0.2280579 0.5919189 0.2073364 0.608429 0.186676 0.5917969 0.1663818 0.5866394 0.1656799 0.5481567 0.1781006 0.5172424 0.1844788 0.5073853 0.5050659 0.2021484 0.5050659 0.201416 0.5050354 0.1785583 0.9978333 0.5791931 0.9378662 0.5837097 0.9978333 0.7106628 0.9309692 0.7377625 0.9300842 0.7578125 0.8476257 0.7220154 0.9376221 0.9315796 0.8625488 0.9040527 0.9403687 0.9866943 0.8579712 0.5810852 0.813446 0.7232666 0.8124084 0.5812988 0.7779236 0.7164612 0.7780457 0.5801697 0.7436218 0.5791931 0.2828979 0.8693542 0.2805481 0.8677063 0.2774353 0.8766785 0.2760925 0.8725281 0.2758484 0.8878479 0.2744751 0.8882751 0.2718811 0.8842163 0.2744751 0.8768005 0.4815979 0.9372559 0.4416504 0.9639893 0.4706421 0.7356873 0.40625 0.9667358 0.40625 0.6923523 0.3418274 0.7356873 0.3588562 0.6199646 0.3099976 0.6170349 0.3047791 0.4988403 0.4676208 0.2692261 0.4984741 0.3146973 0.4661865 0.3344421 0.5006409 0.3901367 0.45401 0.438446 0.5077209 0.5054626 0.4536133 0.6199646 0.5025024 0.6298218 0.115448 0.9098206 0.1295776 0.8996887 0.1418762 0.9159851 0.1434021 0.9166565 0.1365967 0.9473877 0.1414795 0.9288635 0.1307068 0.9507141 0.1348267 0.9333496 0.1125793 0.9537048 0.08950806 0.05889893 0.06976318 0.04144287 0.06314087 0.4249573 0.007232666 0.3850098 0.05963135 0.2988281 0.007232666 0.2581482 0.007232666 0.397583 0.0557251 0.4321899 0.09234619 0.4359131 0.7436218 0.9840698 0.7777405 0.9951172 0.7436218 0.9248352 0.7777405 0.9261475 0.7436218 0.7106628 0.7778931 0.7215271 0.07452393 0.4797363 0.0473938 0.4338379 0.0473938 0.4545593 0.02026367 0.4797363 0.02911377 0.5714111 0.06564331 0.5714111 0.0473938 0.6257935 0.5487976 0.01376343 0.5438538 0.03814697 0.7435608 0.7105713 0.7780762 0.7219543 0.813324 0.7230225 0.1125793 0.9637146 0.1361389 0.9222717 0.1331482 0.9093323 0.07208252 0.6072083 0.08792114 0.5671692 0.0916748 0.4793701 0.1296082 0.8986206 0.1378479 0.9207458 0.2798462 0.8651428 0.2845764 0.8637085 0.2880859 0.8665466 0.2900085 0.8570251 0.2911072 0.8604126 0.1125793 0.9596252 0.003082275 0.4793701 0.006866455 0.5671692 0.02270508 0.6072083 0.4528809 0.009277344 0.432373 0.03173828 0.4723511 0.0513916 0.4249573 0.2100525 0.4708862 0.2157288 0.4367981 0.2303162 0.4597473 0.2294922 0.2940979 0.6099548 0.285614 0.6669312 0.2498169 0.6449585 0.2848206 0.7898254 0.229126 0.7510376 0.263031 0.8682251 0.2305298 0.8552856 0.9885254 0.2588806 0.9945679 0.3670959 0.6750183 0.3678894 0.9944763 0.3779297 0.9883423 0.458252 0.35849 0.438446 0.3118591 0.3901367 0.7290649 0.2597351 0.7322998 0.3412781 0.4062805 0.0201416 0.411377 0.07150269 0.4023438 0.0715332 0.3935242 0.08755493 0.3846741 0.07159424 0.3756714 0.07159424 0.3806763 0.02020264 0.8049622 0.0994873 0.8519897 0.1119995 0.8005981 0.05349731 0.8753967 0.06906128 0.858429 0.03155518 0.8910217 0.04452515 0.8922119 0.02233887 0.8591309 0.1263123 0.8124695 0.1017151 0.8684998 0.08016968 0.8008728 0.02920532 0.8811646 0.008270264 0.801239 0.003845215 0.8515625 0.002075195 0.993866 0.1022644 0.9761047 0.07000732 0.9829102 0.1597595 0.950531 0.0619812 0.937561 0.117981 0.9353333 0.06924438 0.9199829 0.04931641 0.8148193 0.9077148 0.8135681 0.7276001 0.3463135 0.3344421 0.40625 0.3058472 0.1915283 0.6199341 0.1838379 0.7432251 0.2075195 0.5048218 0.207428 0.5504456 0.197998 0.8423767 0.2778931 0.8701477 0.4060364 0.9672546 0.429718 0.9951172 0.4418945 0.9638672 0.4060364 0.9953308 0.4060364 0.9663086 0.3713074 0.9646606 0.9158936 0.1245422 0.9146729 0.2344971 0.9374084 0.2350159 0.2824097 0.8678284 0.2323303 0.9647217 0.2478333 0.9102173 0.1790771 0.9814453 0.2221375 0.869812 0.1767273 0.8799133 0.1368713 0.6439514 0.1438293 0.8554688 0.007110596 0.9489746 0.1125793 0.9028931 0.9984131 0.925354 0.9984131 0.9847717 0.9404297 0.9870911 0.8165894 0.1037292 0.8437195 0.1048584 0.8164673 0.1869202 0.873291 0.1651917 0.8686523 0.2359009 0.007110596 0.7212219 0.6332092 0.2003784 0.8680725 0.04904175 0.9145813 0.05252075 0.8678589 0.1314087 0.910553 0.1248779 0.9117126 0.2347717 0.9504395 0.0619812 0.937439 0.117981 0.9685364 0.2472229 0.9372864 0.2350159 0.3934937 0.02099609 0.7781067 0.7162781 0.7435608 0.5798645 0.7781982 0.5808411 0.9978333 0.9840698 0.9978333 0.9248352 0.8921814 0.02218628 0.8909912 0.04428101 0.858429 0.03140259 0.8753662 0.06878662 0.8005676 0.05328369 0.8250122 0 0.7990417 0.02096558 0.6712952 0.2101746 0.2846069 0.8581848 0.9352417 0.0692749 0.9198608 0.04931641 0.915741 0.1245728 0.9145508 0.2344971 0.8377686 0.2345581 0.8181458 0.2314453 0.8684998 0.08023071 0.2305298 0.5075378 0.8591309 0.1264038 0.8125 0.1017761 0.8049622 0.09915161 0.8519592 0.1116028 0.9760437 0.07000732 0.40625 0.2615356 0.3448486 0.2692261 0.3140259 0.3146973 0.3302307 0.9372559 0.3709717 0.9639893 0.007110596 0.983429 0.9685974 0.2472229 0.8734436 0.1652222 0.8163757 0.1869202 0.8687744 0.2359314 0.8378601 0.2345581 0.8165894 0.1037903 0.843811 0.1048584 0.8777771 0.2480164 0.2221375 0.8696899 0.1790771 0.9815063 0.1766968 0.8799744 0.1567078 0.927063 0.2323914 0.9646606 0.2477417 0.9104004 0.7990417 0.02093506 0.4060364 0.9961548 0.3823547 0.9951172 0.1326904 0.6176758 0.13797 0.5140076 0.1062622 0.6113892 0.7950745 0.5137939 0.7398071 0.4596558 0.7902222 0.4767456 0.8734436 0.1633301 0.8722839 0.1086731 0.1565857 0.9268494 0.9984131 0.5800171 0.873291 0.1633301 0.8721313 0.1086731</float_array>
					<technique_common>
						<accessor source="#polygon0_UVArr0" count="383" stride="2">
							<param name="S" type="float" />
							<param name="T" type="float" />
						</accessor>
					</technique_common>
				</source>
				<vertices id="polygon0_Vertices">
					<input semantic="POSITION" source="#polygon0_Positions" />
				</vertices>
				<triangles material="mario_all_tx" count="635">
					<input semantic="VERTEX" source="#polygon0_Vertices" offset="0" />
					<input semantic="NORMAL" source="#polygon0_Normals" offset="1" />
					<input semantic="COLOR" source="#polygon0_Colors0" set="0" offset="2" />
					<input semantic="TEXCOORD" source="#polygon0_UVs0" set="0" offset="3" />
					<p>2 2 2 1 1 1 1 1 0 0 0 0 3 3 1 2 1 1 1 1 2 2 2 1 4 4 3 3 3 3 1 2 2 2 2 1 5 5 4 4 3 3 1 2 4 4 3 3 6 6 5 5 5 5 4 4 4 4 3 3 7 7 6 6 5 5 4 4 6 6 5 5 8 8 7 7 7 7 6 6 6 6 5 5 9 9 8 8 7 7 6 6 8 8 7 7 10 10 9 9 9 9 8 8 8 8 7 7 11 11 10 10 9 9 8 8 10 10 9 9 12 12 11 11 11 11 10 10 10 10 9 9 13 13 12 1 11 11 10 10 12 12 11 11 1 1 1 1 13 13 12 1 12 12 11 11 3 3 1 2 13 13 12 1 1 1 1 1 16 16 12 14 15 15 14 13 14 14 13 12 17 17 15 15 15 15 14 13 16 16 12 14 18 18 16 16 17 17 15 15 16 16 12 14 19 19 1 17 17 17 15 15 18 18 16 16 20 20 8 18 19 19 1 17 18 18 16 16 21 21 17 19 19 19 1 17 20 20 8 18 22 22 2 20 21 21 17 19 20 20 8 18 23 23 18 21 21 21 17 19 22 22 2 20 24 24 19 22 23 23 18 21 22 22 2 20 25 25 20 23 23 23 18 21 24 24 19 22 26 26 21 24 25 25 20 23 24 24 19 22 21 21 17 19 25 25 20 23 26 26 21 24 27 27 21 25 21 21 17 19 26 26 21 24 28 28 21 26 21 21 17 19 27 27 21 25 31 31 24 28 30 30 23 7 29 29 22 27 32 32 25 5 30 30 23 7 31 31 24 28 33 33 4 4 32 32 25 5 31 31 24 28 34 34 26 6 32 32 25 5 33 33 4 4 35 35 17 29 34 34 26 6 33 33 4 4 36 36 10 10 34 34 26 6 35 35 17 29 37 37 27 1 36 36 10 10 35 35 17 29 38 38 28 11 36 36 10 10 37 37 27 1 39 39 1 1 38 38 28 11 37 37 27 1 40 40 29 0 38 38 28 11 39 39 1 1 41 41 2 1 40 40 29 0 39 39 1 1 44 44 1 32 43 43 1 31 42 42 30 30 45 45 1 33 43 43 1 31 44 44 1 32 46 46 1 31 45 45 1 33 44 44 1 32 47 47 31 34 45 45 1 33 46 46 1 31 48 48 32 35 47 47 31 34 46 46 1 31 49 49 33 36 47 47 31 34 48 48 32 35 50 50 34 37 49 49 33 36 48 48 32 35 51 51 32 35 49 49 33 36 50 50 34 37 52 52 35 38 51 51 32 35 50 50 34 37 53 53 36 39 51 51 32 35 52 52 35 38 56 56 38 42 55 55 22 41 54 54 37 40 57 57 39 43 55 55 22 41 56 56 38 42 58 58 40 44 57 57 39 43 56 56 38 42 59 59 41 45 57 57 39 43 58 58 40 44 60 60 42 46 59 59 41 45 58 58 40 44 61 61 43 47 59 59 41 45 60 60 42 46 62 62 16 48 61 61 43 47 60 60 42 46 63 63 28 49 61 61 43 47 62 62 16 48 64 64 12 50 63 63 28 49 62 62 16 48 65 65 44 51 63 63 28 49 64 64 12 50 68 68 47 54 67 67 46 53 66 66 45 52 69 69 48 55 67 67 46 53 68 68 47 54 70 70 49 56 69 69 48 55 68 68 47 54 71 71 50 57 69 69 48 55 70 70 49 56 72 72 50 58 71 71 50 57 70 70 49 56 73 73 1 59 71 71 50 57 72 72 50 58 74 74 51 60 73 73 1 59 72 72 50 58 75 75 52 61 73 73 1 59 74 74 51 60 76 76 53 62 75 75 52 61 74 74 51 60 78 78 55 65 77 77 54 64 50 50 34 63 79 79 56 66 77 77 54 64 78 78 55 65 80 80 36 67 79 79 56 66 78 78 55 65 81 81 57 68 79 79 56 66 80 80 36 67 82 82 58 69 81 81 57 68 80 80 36 67 83 83 38 70 81 81 57 68 82 82 58 69 84 84 59 71 83 83 38 70 82 82 58 69 85 85 17 72 83 83 38 70 84 84 59 71 86 86 60 73 85 85 17 72 84 84 59 71 88 88 61 76 87 87 54 75 14 14 13 74 89 89 62 77 87 87 54 75 88 88 61 76 44 44 1 32 89 89 62 77 88 88 61 76 90 90 10 76 89 89 62 77 44 44 1 32 42 42 30 30 90 90 10 76 44 44 1 32 91 91 63 78 90 90 10 76 42 42 30 30 92 92 20 79 91 91 63 78 42 42 30 30 93 93 26 80 91 91 63 78 92 92 20 79 94 94 64 81 93 93 26 80 92 92 20 79 97 97 62 84 96 96 66 83 95 95 65 82 98 98 67 85 96 96 66 83 97 97 62 84 99 99 68 86 98 98 67 85 97 97 62 84 100 100 20 87 98 98 67 85 99 99 68 86 97 97 62 84 100 100 20 87 99 99 68 86 101 101 69 88 100 100 20 87 97 97 62 84 102 102 70 88 101 101 69 88 97 97 62 84 103 103 58 89 101 101 69 88 102 102 70 88 104 104 71 90 103 103 58 89 102 102 70 88 106 107 33 93 105 106 35 92 58 105 40 91 107 108 18 94 105 106 35 92 106 107 33 93 108 109 35 95 107 108 18 94 106 107 33 93 81 81 57 68 107 108 18 94 108 109 35 95 64 110 12 96 81 81 57 68 108 109 35 95 109 111 72 97 81 81 57 68 64 110 12 96 62 112 16 98 109 111 72 97 64 110 12 96 60 113 42 99 109 111 72 97 62 112 16 98 112 116 74 53 111 115 47 54 110 114 73 52 113 117 66 55 111 115 47 54 112 116 74 53 114 118 44 100 113 117 66 55 112 116 74 53 115 119 75 101 113 117 66 55 114 118 44 100 116 120 1 102 115 119 75 101 114 118 44 100 117 121 1 59 115 119 75 101 116 120 1 102 118 122 76 103 117 121 1 59 116 120 1 102 119 123 77 61 117 121 1 59 118 122 76 103 122 126 12 50 121 125 37 104 120 124 78 40 123 127 20 51 121 125 37 104 122 126 12 50 124 128 79 49 123 127 20 51 122 126 12 50 125 129 80 105 123 127 20 51 124 128 79 49 126 130 81 47 125 129 80 105 124 128 79 49 127 131 41 45 125 129 80 105 126 130 81 47 128 132 42 46 127 131 41 45 126 130 81 47 129 133 40 44 127 131 41 45 128 132 42 46 132 136 84 108 131 135 83 107 130 134 82 106 133 137 85 109 131 135 83 107 132 136 84 108 134 138 27 110 133 137 85 109 132 136 84 108 135 139 84 108 133 137 85 109 134 138 27 110 136 140 75 111 135 139 84 108 134 138 27 110 137 141 86 112 135 139 84 108 136 140 75 111 138 142 32 113 137 141 86 112 136 140 75 111 139 143 87 114 137 141 86 112 138 142 32 113 141 145 47 117 140 144 88 116 111 115 47 115 142 146 1 118 140 144 88 116 141 145 47 117 143 147 1 119 142 146 1 118 141 145 47 117 144 148 1 120 142 146 1 118 143 147 1 119 145 149 47 121 144 148 1 120 143 147 1 119 146 150 38 122 144 148 1 120 145 149 47 121 68 68 47 123 146 150 38 122 145 149 47 121 66 66 45 124 146 150 38 122 68 68 47 123 147 151 37 104 64 64 12 50 54 54 37 40 65 65 44 51 64 64 12 50 147 151 37 104 148 152 89 125 65 65 44 51 147 151 37 104 149 153 90 105 65 65 44 51 148 152 89 125 150 154 91 126 149 153 90 105 148 152 89 125 59 59 41 45 149 153 90 105 150 154 91 126 151 155 92 127 59 59 41 45 150 154 91 126 57 57 39 43 59 59 41 45 151 155 92 127 154 158 46 130 153 157 21 129 152 156 21 128 155 159 93 131 153 157 21 129 154 158 46 130 156 160 14 132 155 159 93 131 154 158 46 130 157 161 94 133 155 159 93 131 156 160 14 132 158 162 2 134 157 161 94 133 156 160 14 132 91 91 63 135 157 161 94 133 158 162 2 134 90 90 10 136 91 91 63 135 158 162 2 134 157 161 94 133 153 157 21 129 155 159 93 131 159 163 21 137 153 157 21 129 157 161 94 133 160 164 95 138 159 163 21 137 157 161 94 133 161 165 21 139 159 163 21 137 160 164 95 138 162 166 1 140 161 165 21 139 160 164 95 138 163 167 21 141 161 165 21 139 162 166 1 140 152 156 21 142 163 167 21 141 162 166 1 140 139 170 87 145 165 169 3 144 164 168 13 143 166 171 96 146 165 169 3 144 139 170 87 145 138 50 32 147 166 171 96 146 139 170 87 145 167 172 62 148 166 171 96 146 138 50 32 147 168 173 35 146 167 172 62 148 138 50 32 147 76 76 53 149 167 172 62 148 168 173 35 146 75 75 52 150 76 76 53 149 168 173 35 146 171 176 97 153 170 175 85 152 169 174 82 151 172 177 66 154 170 175 85 152 171 176 97 153 173 178 64 155 172 177 66 154 171 176 97 153 16 16 12 156 172 177 66 154 173 178 64 155 174 179 1 157 16 16 12 156 173 178 64 155 18 18 16 158 16 16 12 156 174 179 1 157 175 180 46 159 18 18 16 158 174 179 1 157 178 183 99 162 177 182 58 161 176 181 98 160 179 184 88 163 177 182 58 161 178 183 99 162 180 185 79 164 179 184 88 163 178 183 99 162 94 94 64 165 179 184 88 163 180 185 79 164 181 186 11 166 94 94 64 165 180 185 79 164 93 93 26 167 94 94 64 165 181 186 11 166 171 176 97 153 93 93 26 167 181 186 11 166 184 189 100 170 183 188 1 169 182 187 1 168 185 190 74 171 183 188 1 169 184 189 100 170 186 191 101 172 185 190 74 171 184 189 100 170 187 192 55 173 185 190 74 171 186 191 101 172 188 193 14 174 187 192 55 173 186 191 101 172 189 194 102 175 187 192 55 173 188 193 14 174 133 195 85 176 189 194 102 175 188 193 14 174 135 139 84 108 189 196 102 107 133 137 85 109 164 197 13 106 189 196 102 107 135 139 84 108 190 198 103 177 164 197 13 106 135 139 84 108 139 143 87 114 164 197 13 106 190 198 103 177 191 199 86 178 139 143 87 114 190 198 103 177 135 139 84 108 139 143 87 114 191 199 86 178 190 198 103 177 135 139 84 108 191 199 86 178 192 200 104 28 6 6 5 5 4 4 3 3 8 8 7 7 6 6 5 5 192 200 104 28 193 201 22 27 8 8 7 7 192 200 104 28 10 10 9 9 8 8 7 7 193 201 22 27 0 0 0 0 10 10 9 9 193 201 22 27 12 12 11 11 10 10 9 9 0 0 0 0 1 1 1 1 12 12 11 11 0 0 0 0 34 34 26 6 30 30 23 7 32 32 25 5 194 202 6 8 30 30 23 7 34 34 26 6 36 36 10 10 194 202 6 8 34 34 26 6 195 203 4 9 194 202 6 8 36 36 10 10 38 38 28 11 195 203 4 9 36 36 10 10 40 40 29 0 195 203 4 9 38 38 28 11 197 206 96 92 196 205 86 93 129 204 40 91 198 207 75 94 196 205 86 93 197 206 96 92 199 208 76 70 198 207 75 94 197 206 96 92 200 209 57 68 198 207 75 94 199 208 76 70 177 182 58 69 200 209 57 68 199 208 76 70 53 53 36 67 200 209 57 68 177 182 58 69 203 212 105 181 202 211 86 180 201 210 77 179 204 213 106 182 202 211 86 180 203 212 105 181 205 214 83 183 204 213 106 182 203 212 105 181 206 215 93 181 204 213 106 182 205 214 83 183 207 216 42 184 206 215 93 181 205 214 83 183 208 217 107 185 206 215 93 181 207 216 42 184 209 218 106 188 171 176 97 187 169 174 82 186 210 219 15 189 171 176 97 187 209 218 106 188 154 158 46 190 210 219 15 189 209 218 106 188 211 220 1 191 210 219 15 189 154 158 46 190 162 166 1 140 211 220 1 191 154 158 46 190 160 164 95 138 211 220 1 191 162 166 1 140 200 209 57 68 122 222 12 96 212 221 35 95 213 223 9 97 122 222 12 96 200 209 57 68 214 224 108 66 213 223 9 97 200 209 57 68 215 225 54 64 213 223 9 97 214 224 108 66 52 52 35 65 215 225 54 64 214 224 108 66 50 50 34 63 215 225 54 64 52 52 35 65 217 227 82 83 97 97 62 84 216 226 48 82 218 228 109 85 97 97 62 84 217 227 82 83 219 229 110 87 218 228 109 85 217 227 82 83 220 230 3 86 218 228 109 85 219 229 110 87 97 97 62 84 220 230 3 86 219 229 110 87 218 228 109 85 220 230 3 86 97 97 62 84 223 233 1 194 222 232 108 193 221 231 81 192 224 234 81 195 222 232 108 193 223 233 1 194 221 231 81 192 224 234 81 195 223 233 1 194 225 235 1 196 224 234 81 195 221 231 81 192 226 236 1 197 225 235 1 196 221 231 81 192 227 237 1 198 225 235 1 196 226 236 1 197 127 131 41 45 229 239 92 127 228 238 111 126 230 240 22 43 229 239 92 127 127 131 41 45 129 133 40 44 230 240 22 43 127 131 41 45 231 241 44 42 230 240 22 43 129 133 40 44 196 242 86 199 231 241 44 42 129 133 40 44 212 243 35 200 231 241 44 42 196 242 86 199 17 17 15 15 24 24 19 201 15 15 14 13 232 244 72 202 24 24 19 201 17 17 15 15 19 19 1 17 232 244 72 202 17 17 15 15 233 245 112 203 232 244 72 202 19 19 1 17 21 21 17 19 233 245 112 203 19 19 1 17 28 28 21 26 233 245 112 203 21 21 17 19 134 138 27 110 138 142 32 113 136 140 75 111 234 246 58 111 138 142 32 113 134 138 27 110 132 136 84 108 234 246 58 111 134 138 27 110 235 247 33 112 234 246 58 111 132 136 84 108 236 248 113 114 235 247 33 112 132 136 84 108 138 142 32 113 235 247 33 112 236 248 113 114 238 250 114 172 237 249 14 174 222 232 108 204 239 251 55 173 237 249 14 174 238 250 114 172 240 252 74 171 239 251 55 173 238 250 114 172 241 253 115 205 239 251 55 173 240 252 74 171 208 254 107 206 241 253 115 205 240 252 74 171 226 236 1 197 182 187 1 207 227 237 1 198 242 255 116 208 182 187 1 207 226 236 1 197 221 231 81 192 242 255 116 208 226 236 1 197 186 191 101 209 242 255 116 208 221 231 81 192 222 232 108 193 186 191 101 209 221 231 81 192 240 252 74 171 243 256 52 210 208 254 107 206 244 257 11 169 243 256 52 210 240 252 74 171 245 258 100 170 244 257 11 169 240 252 74 171 246 259 1 168 244 257 11 169 245 258 100 170 247 260 116 211 246 259 1 168 245 258 100 170 130 263 82 143 249 262 118 212 248 261 117 144 250 264 12 213 249 262 118 212 130 263 82 143 131 16 83 214 250 264 12 213 130 263 82 143 251 265 9 215 250 264 12 213 131 16 83 214 239 266 55 216 251 265 9 215 131 16 83 214 222 232 108 204 188 193 14 174 186 191 101 172 252 267 88 217 188 193 14 174 222 232 108 204 237 249 14 174 252 267 88 217 222 232 108 204 133 195 85 176 252 267 88 217 237 249 14 174 131 268 83 175 133 195 85 176 237 249 14 174 189 176 102 214 253 265 28 215 187 269 55 216 254 270 12 213 253 265 28 215 189 176 102 214 164 271 13 143 254 270 12 213 189 176 102 214 255 272 119 212 254 270 12 213 164 271 13 143 165 273 3 144 255 272 119 212 164 271 13 143 224 234 81 195 238 250 114 218 222 232 108 193 247 260 116 219 238 250 114 218 224 234 81 195 225 235 1 196 247 260 116 219 224 234 81 195 246 259 1 220 247 260 116 219 225 235 1 196 227 237 1 198 246 259 1 220 225 235 1 196 57 274 39 223 54 274 37 222 55 274 22 221 147 274 37 224 54 274 37 222 57 274 39 223 151 274 92 225 147 274 37 224 57 274 39 223 148 274 89 226 147 274 37 224 151 274 92 225 150 274 91 227 148 274 89 226 151 274 92 225 257 277 120 230 256 276 104 229 187 275 55 228 258 278 121 231 256 276 104 229 257 277 120 230 259 279 90 232 258 278 121 231 257 277 120 230 260 280 18 233 258 278 121 231 259 279 90 232 261 229 43 234 260 280 18 233 259 279 90 232 213 223 9 97 262 281 16 98 122 222 12 96 128 282 42 99 262 281 16 98 213 223 9 97 215 225 54 64 128 282 42 99 213 223 9 97 129 204 40 235 128 282 42 99 215 225 54 64 197 206 96 236 129 204 40 235 215 225 54 64 46 46 1 31 263 283 58 237 48 48 32 35 264 284 80 79 263 283 58 237 46 46 1 31 265 285 122 30 264 284 80 79 46 46 1 31 20 20 8 78 264 284 80 79 265 285 122 30 88 88 61 76 20 20 8 78 265 285 122 30 50 50 34 63 86 86 60 239 266 286 17 238 85 85 17 238 86 86 60 239 50 50 34 63 77 77 54 64 85 85 17 238 50 50 34 63 105 106 35 236 85 85 17 238 77 77 54 64 58 105 40 235 105 106 35 236 77 77 54 64 268 288 51 60 119 123 77 61 267 287 53 62 117 121 1 59 119 123 77 61 268 288 51 60 269 289 123 57 117 121 1 59 268 288 51 60 115 119 75 101 117 121 1 59 269 289 123 57 270 290 124 56 115 119 75 101 269 289 123 57 181 186 11 166 173 178 64 155 171 176 97 153 174 179 1 157 173 178 64 155 181 186 11 166 271 291 28 240 174 179 1 157 181 186 11 166 175 180 46 159 174 179 1 157 271 291 28 240 272 292 88 241 175 180 46 159 271 291 28 240 48 48 32 35 78 78 55 38 50 50 34 37 80 80 36 39 78 78 55 38 48 48 32 35 263 283 58 237 80 80 36 39 48 48 32 35 82 82 58 242 80 80 36 39 263 283 58 237 272 292 88 243 82 82 58 242 263 283 58 237 236 248 113 114 273 293 103 177 130 134 82 106 274 294 6 178 273 293 103 177 236 248 113 114 132 136 84 108 274 294 6 178 236 248 113 114 273 293 103 177 274 294 6 178 132 136 84 108 130 134 82 106 273 293 103 177 132 136 84 108 275 295 125 246 141 145 47 245 111 115 47 244 143 147 1 247 141 145 47 245 275 295 125 246 276 296 32 248 143 147 1 247 275 295 125 246 145 149 47 249 143 147 1 247 276 296 32 248 68 68 47 250 145 149 47 249 276 296 32 248 279 299 126 253 278 298 44 252 277 297 72 251 280 300 64 254 278 298 44 252 279 299 126 253 281 301 127 255 280 300 64 254 279 299 126 253 282 302 69 256 280 300 64 254 281 301 127 255 283 303 128 257 282 302 69 256 281 301 127 255 286 306 47 260 285 305 1 259 284 304 129 258 287 307 46 261 285 305 1 259 286 306 47 260 288 308 130 262 287 307 46 261 286 306 47 260 4 309 3 263 287 307 46 261 288 308 130 262 192 310 104 264 4 309 3 263 288 308 130 262 192 310 104 267 283 303 128 266 193 311 22 265 282 302 69 268 283 303 128 266 192 310 104 267 289 312 46 269 282 302 69 268 192 310 104 267 280 300 64 270 282 302 69 268 289 312 46 269 278 298 44 271 280 300 64 270 289 312 46 269 210 219 15 189 93 93 26 272 171 176 97 187 290 313 28 273 93 93 26 272 210 219 15 189 211 220 1 191 290 313 28 273 210 219 15 189 160 164 95 138 290 313 28 273 211 220 1 191 271 291 28 240 291 314 94 274 272 292 88 241 292 315 131 275 291 314 94 274 271 291 28 240 180 185 79 164 292 315 131 275 271 291 28 240 178 183 99 162 292 315 131 275 180 185 79 164 109 111 72 97 79 79 56 66 81 81 57 68 77 77 54 64 79 79 56 66 109 111 72 97 60 113 42 99 77 77 54 64 109 111 72 97 58 105 40 235 77 77 54 64 60 113 42 99 11 11 10 10 7 7 6 6 9 9 8 8 293 316 17 29 7 7 6 6 11 11 10 10 13 13 12 1 293 316 17 29 11 11 10 10 3 3 1 2 293 316 17 29 13 13 12 1 295 319 120 230 294 318 1 277 248 317 117 276 296 320 90 232 294 318 1 277 295 319 120 230 208 321 107 231 296 320 90 232 295 319 120 230 297 322 18 233 296 320 90 232 208 321 107 231 43 43 1 31 92 92 20 79 42 42 30 30 298 323 18 237 92 92 20 79 43 43 1 31 51 51 32 35 298 323 18 237 43 43 1 31 53 53 36 39 298 323 18 237 51 51 32 35 231 241 44 42 299 324 22 41 230 240 22 43 120 124 78 40 299 324 22 41 231 241 44 42 212 243 35 200 120 124 78 40 231 241 44 42 122 126 12 50 120 124 78 40 212 243 35 200 300 44 110 278 146 150 38 122 66 66 45 124 301 325 51 279 146 150 38 122 300 44 110 278 140 144 88 116 301 325 51 279 300 44 110 278 142 146 1 118 301 325 51 279 140 144 88 116 302 326 132 100 294 318 1 102 67 67 46 53 303 327 88 101 294 318 1 102 302 326 132 100 69 69 48 55 303 327 88 101 302 326 132 100 71 71 50 57 303 327 88 101 69 69 48 55 259 279 90 232 112 116 74 280 261 229 43 234 116 120 1 277 112 116 74 280 259 279 90 232 257 277 120 230 116 120 1 277 259 279 90 232 165 169 3 276 116 120 1 277 257 277 120 230 304 328 3 3 33 33 4 4 31 31 24 28 305 329 1 2 33 33 4 4 304 328 3 3 41 41 2 1 305 329 1 2 304 328 3 3 39 39 1 1 305 329 1 2 41 41 2 1 108 330 35 200 54 54 37 40 64 64 12 50 56 56 38 42 54 54 37 40 108 330 35 200 106 331 33 199 56 56 38 42 108 330 35 200 58 58 40 44 56 56 38 42 106 331 33 199 267 287 53 149 167 172 62 148 76 76 53 149 166 171 96 146 167 172 62 148 267 287 53 149 119 123 77 150 166 171 96 146 267 287 53 149 118 122 76 281 166 171 96 146 119 123 77 150 170 175 85 284 306 332 62 283 89 89 62 282 307 333 62 285 306 332 62 283 170 175 85 284 172 177 66 286 307 333 62 285 170 175 85 284 87 87 54 287 307 333 62 285 172 177 66 286 289 312 46 269 308 334 133 288 278 298 44 271 284 304 129 289 308 334 133 288 289 312 46 269 286 306 47 290 284 304 129 289 289 312 46 269 309 335 98 281 248 317 117 144 294 318 1 291 168 173 35 146 248 317 117 144 309 335 98 281 75 75 52 150 168 173 35 146 309 335 98 281 236 336 113 145 168 173 35 146 138 50 32 147 248 317 117 144 168 173 35 146 236 336 113 145 130 337 82 143 248 317 117 144 236 336 113 145 295 319 120 294 251 339 9 293 239 338 55 292 310 340 7 295 251 339 9 293 295 319 120 294 249 341 118 296 310 340 7 295 295 319 120 294 311 343 72 299 183 188 1 298 201 342 77 297 182 187 1 168 183 188 1 298 311 343 72 299 227 237 1 300 182 187 1 168 311 343 72 299 22 22 2 20 15 15 14 301 24 24 19 22 14 14 13 302 15 15 14 301 22 22 2 20 88 88 61 303 14 14 13 302 22 22 2 20 83 83 38 70 107 108 18 94 81 81 57 68 105 106 35 92 107 108 18 94 83 83 38 70 85 85 17 72 105 106 35 92 83 83 38 70 41 346 2 306 312 345 93 305 40 344 29 304 313 347 1 307 312 345 93 305 41 346 2 306 314 348 28 308 313 347 1 307 41 346 2 306 311 343 72 299 243 256 52 297 244 257 11 298 202 147 86 309 243 256 52 297 311 343 72 299 201 342 77 297 202 147 86 309 311 343 72 299 195 203 4 9 30 30 23 7 194 202 6 8 29 29 22 27 30 30 23 7 195 203 4 9 40 40 29 0 29 29 22 27 195 203 4 9 100 100 20 87 96 96 66 83 98 98 67 85 95 95 65 82 96 96 66 83 100 100 20 87 315 349 64 310 95 95 65 82 100 100 20 87 313 347 1 313 317 351 64 312 316 350 5 311 318 352 133 314 317 351 64 312 313 347 1 313 319 353 129 315 318 352 133 314 313 347 1 313 321 356 46 317 31 355 24 267 320 354 130 316 322 357 70 318 31 355 24 267 321 356 46 317 323 358 47 319 322 357 70 318 321 356 46 317 324 359 134 320 275 295 125 246 111 115 47 244 276 296 32 248 275 295 125 246 324 359 134 320 68 68 47 250 276 296 32 248 324 359 134 320 47 47 31 34 43 43 1 31 45 45 1 33 51 51 32 35 43 43 1 31 47 47 31 34 49 49 33 36 51 51 32 35 47 47 31 34 298 323 18 237 94 94 64 81 92 92 20 79 179 184 88 243 94 94 64 81 298 323 18 237 177 182 58 242 179 184 88 243 298 323 18 237 203 212 105 181 325 360 135 184 205 214 83 183 258 361 121 185 325 360 135 184 203 212 105 181 201 210 77 179 258 361 121 185 203 212 105 181 326 362 1 321 24 24 19 201 232 244 72 202 327 363 21 322 24 24 19 201 326 362 1 321 328 364 21 323 327 363 21 322 326 362 1 321 326 362 1 321 28 28 21 26 328 364 21 323 233 245 112 203 28 28 21 26 326 362 1 321 232 244 72 202 233 245 112 203 326 362 1 321 158 162 2 134 169 174 82 324 90 90 10 136 209 218 106 325 169 174 82 324 158 162 2 134 154 158 46 130 209 218 106 325 158 162 2 134 199 208 76 70 176 181 98 71 177 182 58 69 266 286 17 72 176 181 98 71 199 208 76 70 197 206 96 92 266 286 17 72 199 208 76 70 290 313 28 273 91 91 63 135 93 93 26 272 157 161 94 133 91 91 63 135 290 313 28 273 160 164 95 138 157 161 94 133 290 313 28 273 330 366 127 328 320 354 130 327 329 365 33 326 331 367 136 329 320 354 130 327 330 366 127 328 312 345 93 330 331 367 136 329 330 366 127 328 281 301 127 255 193 311 22 331 283 303 128 257 0 368 0 332 193 311 22 331 281 301 127 255 279 299 126 253 0 368 0 332 281 301 127 255 333 370 98 333 102 102 70 88 332 369 44 310 104 104 71 90 102 102 70 88 333 370 98 333 165 169 3 144 118 122 76 281 116 120 1 291 166 171 96 146 118 122 76 281 165 169 3 144 73 73 1 59 303 327 88 101 71 71 50 57 294 318 1 102 303 327 88 101 73 73 1 59 334 371 11 334 254 270 12 213 255 272 119 212 253 265 28 215 254 270 12 213 334 371 11 334 293 316 17 29 5 5 4 4 7 7 6 6 3 3 1 2 5 5 4 4 293 316 17 29 113 117 66 55 270 290 124 56 111 115 47 54 115 119 75 101 270 290 124 56 113 117 66 55 331 367 136 335 321 356 46 317 320 354 130 316 317 351 64 336 321 356 46 317 331 367 136 335 318 352 133 337 321 356 46 317 317 351 64 336 319 353 129 338 321 356 46 317 318 352 133 337 41 346 2 306 335 372 136 339 314 348 28 308 304 373 3 340 335 372 136 339 41 346 2 306 335 372 136 261 322 357 70 262 323 358 47 341 304 373 3 263 322 357 70 262 335 372 136 261 301 325 51 279 144 148 1 120 146 150 38 122 142 146 1 118 144 148 1 120 301 325 51 279 110 114 73 342 140 144 88 116 300 44 110 278 111 115 47 115 140 144 88 116 110 114 73 342 314 348 28 344 323 358 47 341 319 353 129 343 335 372 136 261 323 358 47 341 314 348 28 344 309 335 98 103 73 73 1 59 75 75 52 61 294 318 1 102 73 73 1 59 309 335 98 103 317 351 64 346 312 345 93 330 316 350 5 345 331 367 136 329 312 345 93 330 317 351 64 346 329 365 33 347 31 355 24 267 29 374 22 265 320 354 130 316 31 355 24 267 329 365 33 347 86 86 60 348 292 315 131 275 178 183 99 162 291 314 94 274 292 315 131 275 86 86 60 348 82 82 58 350 291 314 94 274 84 84 59 349 272 292 88 241 291 314 94 274 82 82 58 350 87 87 54 352 16 16 12 156 14 14 13 351 172 177 66 154 16 16 12 156 87 87 54 352 311 343 72 299 246 259 1 168 227 237 1 353 244 257 11 169 246 259 1 168 311 343 72 299 250 264 12 213 310 375 7 334 249 262 118 212 251 265 9 215 310 375 7 334 250 264 12 213 336 100 137 234 296 320 90 232 297 322 18 233 67 67 46 280 296 320 90 232 336 100 137 234 245 258 100 170 238 250 114 172 247 260 116 211 240 252 74 171 238 250 114 172 245 258 100 170 256 376 104 205 185 190 74 171 187 192 55 173 258 377 121 206 185 190 74 171 256 376 104 205 185 190 74 171 201 342 77 210 183 188 1 169 258 377 121 206 201 342 77 210 185 190 74 171 242 255 116 211 184 189 100 170 182 187 1 168 186 191 101 172 184 189 100 170 242 255 116 211 170 175 85 75 90 90 10 76 169 174 82 74 89 89 62 77 90 90 10 76 170 175 85 75 241 378 115 229 295 319 120 230 239 338 55 228 208 321 107 231 295 319 120 230 241 378 115 229 126 130 81 47 262 379 16 48 128 132 42 46 124 128 79 49 262 379 16 48 126 130 81 47 123 127 20 51 337 380 138 125 121 125 37 104 125 129 80 105 337 380 138 125 123 127 20 51 125 129 80 105 228 238 111 126 337 380 138 125 127 131 41 45 228 238 111 126 125 129 80 105 288 308 130 354 289 312 46 269 192 310 104 267 286 306 47 290 289 312 46 269 288 308 130 354 285 305 1 357 2 382 2 356 338 381 1 355 287 307 46 358 2 382 2 356 285 305 1 357 279 299 126 360 2 382 2 356 0 368 0 359 338 381 1 355 2 382 2 356 279 299 126 360 37 37 27 1 305 329 1 2 39 39 1 1 35 35 17 29 305 329 1 2 37 37 27 1 284 304 129 315 338 381 1 313 308 334 133 314 285 305 1 361 338 381 1 313 284 304 129 315 121 383 37 224 229 383 92 225 230 383 22 223 337 383 138 226 229 383 92 225 121 383 37 224 278 298 44 312 338 381 1 313 277 297 72 311 308 334 133 314 338 381 1 313 278 298 44 312 215 225 54 64 266 286 17 238 197 206 96 236 50 50 34 63 266 286 17 238 215 225 54 64 44 44 1 32 265 285 122 30 46 46 1 31 88 88 61 76 265 285 122 30 44 44 1 32 263 283 58 237 175 180 46 81 272 292 88 243 264 284 80 79 175 180 46 81 263 283 58 237 18 18 16 80 264 284 80 79 20 20 8 78 175 180 46 81 264 284 80 79 18 18 16 80 120 383 78 222 230 383 22 223 299 383 22 221 121 383 37 224 230 383 22 223 120 383 78 222 214 224 108 66 53 53 36 67 52 52 35 65 200 209 57 68 53 53 36 67 214 224 108 66 198 207 75 94 212 221 35 95 196 205 86 93 200 209 57 68 212 221 35 95 198 207 75 94 269 289 123 57 339 384 71 58 270 290 124 56 268 288 51 60 339 384 71 58 269 289 123 57 243 385 52 179 206 215 93 181 208 217 107 185 202 211 86 180 206 215 93 181 243 385 52 179 255 387 119 364 257 277 120 363 334 386 11 362 165 169 3 365 257 277 120 363 255 387 119 364 216 226 48 82 219 229 110 87 217 227 82 83 332 369 44 310 219 229 110 87 216 226 48 82 253 388 28 367 257 277 120 363 187 275 55 366 334 386 11 362 257 277 120 363 253 388 28 367 219 229 110 87 102 102 70 88 97 97 62 84 332 369 44 310 102 102 70 88 219 229 110 87 74 74 51 60 267 287 53 62 76 76 53 62 268 288 51 60 267 287 53 62 74 74 51 60 61 61 43 47 149 153 90 105 59 59 41 45 63 63 28 49 149 153 90 105 61 61 43 47 340 389 71 90 101 101 69 88 103 103 58 89 341 390 127 333 101 101 69 88 340 389 71 90 29 374 22 331 330 366 127 328 329 365 33 326 40 344 29 368 330 366 127 328 29 374 22 331 315 349 64 310 101 101 69 88 341 390 127 333 100 100 20 87 101 101 69 88 315 349 64 310 342 391 62 369 89 89 62 282 306 332 62 283 343 392 62 370 89 89 62 282 342 391 62 369 343 392 62 370 87 87 54 287 89 89 62 282 307 333 62 285 87 87 54 287 343 392 62 370 260 280 18 373 325 393 135 372 258 278 121 371 154 158 46 130 158 162 2 134 156 160 14 132 266 286 17 72 86 86 60 73 176 181 98 71 176 181 98 376 86 86 60 375 178 183 99 374 277 297 72 378 338 381 1 377 279 299 126 360 2 382 2 356 287 307 46 358 4 309 3 340 294 318 1 277 296 320 90 232 67 67 46 280 295 319 120 294 248 317 117 379 249 341 118 296 297 322 18 373 208 321 107 371 207 394 42 372 21 21 17 19 23 23 18 21 25 25 20 23 26 26 21 24 24 24 19 22 327 363 21 380 88 88 61 303 22 22 2 20 20 20 8 18 86 86 60 375 84 84 59 376 291 314 94 374 314 348 28 361 319 353 129 315 313 347 1 313 316 350 5 382 312 345 93 305 313 347 1 381 31 355 24 264 322 357 70 262 304 373 3 263 154 158 46 190 152 156 21 142 162 166 1 140 228 383 111 227 229 383 92 225 337 383 138 226 114 118 44 100 112 116 74 53 116 120 1 102 180 185 79 164 271 291 28 240 181 186 11 166 69 69 48 55 302 326 132 100 67 67 46 53 305 329 1 2 35 35 17 29 33 33 4 4 319 353 129 338 323 358 47 319 321 356 46 317 235 247 33 112 138 142 32 113 234 246 58 111 137 141 86 112 139 143 87 114 135 139 84 108 237 249 14 174 239 251 55 173 131 268 83 175 133 195 85 176 188 193 14 174 252 267 88 217 262 379 16 48 124 128 79 49 122 126 12 50 298 323 18 237 53 53 36 39 177 182 58 242 204 213 106 182 206 215 93 181 202 211 86 180 65 65 44 51 149 153 90 105 63 63 28 49 330 366 127 328 40 344 29 368 312 345 93 330</p>
				</triangles>
			</mesh>
		</geometry>
		<geometry id="polygon1" name="polygon1">
			<mesh>
				<source id="polygon1_Positions">
					<float_array id="polygon1_PosArr" count="84">13.51563 105.8906 20.01953 15.57422 100.875 20.84766 0 108.0625 23.60156 0 101.6914 25.86719 -15.57422 100.875 20.84766 -7.984375 95.82031 23.86328 -15.76953 95.41016 21.35156 -15.96484 89.94922 21.85938 7.984375 95.82031 23.86328 0 95.55469 26.17969 0 92.16016 26.35156 -4.902344 87.85156 26.96484 6.257813 84.29688 28.72656 9.382813 77.30469 27.01563 0 80.51953 31.41797 0 75.41016 29.94531 -9.382813 77.30469 27.01563 -1.179688 73.69141 28.80469 -8.214844 75.10938 26.60547 -4.714844 68.53516 25.37891 4.902344 87.85156 26.96484 15.96484 89.94922 21.85938 15.76953 95.41016 21.35156 8.214844 75.10938 26.60547 4.714844 68.53516 25.37891 1.179688 73.69141 28.80469 -13.51563 105.8906 20.01953 -6.257813 84.29688 28.72656</float_array>
					<technique_common>
						<accessor source="#polygon1_PosArr" count="28" stride="3">
							<param name="X" type="float" />
							<param name="Y" type="float" />
							<param name="Z" type="float" />
						</accessor>
					</technique_common>
				</source>
				<source id="polygon1_Normals">
					<float_array id="polygon1_NormArr" count="84">0.6000366 0.3637085 0.7125244 0.6065674 0.2008667 0.7692261 0 0.3081665 0.951355 0 0.1643066 0.9863892 -0.6065674 0.2008667 0.7692261 -0.2936401 0.07373047 0.953064 -0.6809082 0.0916748 0.7265625 -0.647522 0.2090454 0.7328491 0.2936401 0.07373047 0.953064 0 0.05065918 0.9987183 0 0.7360229 0.6769409 -0.8041382 0.5581055 0.2046509 0.8793945 -0.302124 0.3679199 0.4642334 -0.2457886 0.8509521 0 -0.8956909 0.4447021 0 -0.3275757 0.9448242 -0.4642334 -0.2457886 0.8509521 -0.1749268 -0.4588013 0.8711548 -0.4395752 -0.3853149 0.8113403 -0.3417358 -0.7294922 0.5924683 0.8041382 0.5581055 0.2046509 0.647522 0.2090454 0.7328491 0.6809082 0.0916748 0.7265625 0.4395752 -0.3853149 0.8113403 0.3417358 -0.7294922 0.5924683 0.1749268 -0.4588013 0.8711548 -0.6000366 0.3637085 0.7125244 -0.8793945 -0.302124 0.3679199</float_array>
					<technique_common>
						<accessor source="#polygon1_NormArr" count="28" stride="3">
							<param name="X" type="float" />
							<param name="Y" type="float" />
							<param name="Z" type="float" />
						</accessor>
					</technique_common>
				</source>
				<source id="polygon1_Colors0">
					<float_array id="polygon1_ColorArr0" count="96">0.254902 0.254902 0.254902 0.254902 0.7372549 0.7372549 0.7372549 0.7372549 0.2862745 0.2862745 0.2862745 0.2862745 0.6078432 0.6078432 0.6078432 0.6078432 1 1 1 1 0.9490197 0.9490197 0.9490197 0.9490197 0.8156863 0.8156863 0.8156863 0.8156863 0.9921569 0.9921569 0.9921569 0.9921569 0.6941177 0.6941177 0.6941177 0.6941177 0.5411765 0.5411765 0.5411765 0.5411765 0.8000001 0.8000001 0.8000001 0.8000001 0.4196079 0.4196079 0.4196079 0.4196079 0.2196079 0.2196079 0.2196079 0.2196079 0.509804 0.509804 0.509804 0.509804 0.4156863 0.4156863 0.4156863 0.4156863 0.7411765 0.7411765 0.7411765 0.7411765 0.7529413 0.7529413 0.7529413 0.7529413 0.9019608 0.9019608 0.9019608 0.9019608 0.5450981 0.5450981 0.5450981 0.5450981 0.7960785 0.7960785 0.7960785 0.7960785 0.9411765 0.9411765 0.9411765 0.9411765 0.7607844 0.7607844 0.7607844 0.7607844 0.7450981 0.7450981 0.7450981 0.7450981 0.2627451 0.2627451 0.2627451 0.2627451</float_array>
					<technique_common>
						<accessor source="#polygon1_ColorArr0" count="24" stride="4">
							<param name="R" type="float" />
							<param name="G" type="float" />
							<param name="B" type="float" />
							<param name="A" type="float" />
						</accessor>
					</technique_common>
				</source>
				<source id="polygon1_UVs0">
					<float_array id="polygon1_UVArr0" count="56">0.9279785 0.9251709 0.9932251 0.8109741 0.5 0.9709473 0.5 0.8247681 0.006774902 0.8109741 0.2471924 0.6939087 0.0006103516 0.6870728 -0.005615234 0.5631104 0.7528076 0.6939087 0.5 0.685791 0.5 0.6088257 0.3447266 0.5108643 0.8259888 0.4886475 0.9887085 0.2730103 0.5 0.3728638 0.5 0.2235718 0.0112915 0.2730103 0.4385986 0.1690674 0.07208252 0.2061768 0.2544556 0.005554199 0.6552734 0.5108643 1.005615 0.5631104 0.9993896 0.6870728 0.9279175 0.2061768 0.7455444 0.005554199 0.5614014 0.1690674 0.07202148 0.9251709 0.1740112 0.4886475</float_array>
					<technique_common>
						<accessor source="#polygon1_UVArr0" count="28" stride="2">
							<param name="S" type="float" />
							<param name="T" type="float" />
						</accessor>
					</technique_common>
				</source>
				<vertices id="polygon1_Vertices">
					<input semantic="POSITION" source="#polygon1_Positions" />
				</vertices>
				<triangles material="mario_eye_tx" count="31">
					<input semantic="VERTEX" source="#polygon1_Vertices" offset="0" />
					<input semantic="NORMAL" source="#polygon1_Normals" offset="1" />
					<input semantic="COLOR" source="#polygon1_Colors0" set="0" offset="2" />
					<input semantic="TEXCOORD" source="#polygon1_UVs0" set="0" offset="3" />
					<p>2 2 2 2 1 1 1 1 0 0 0 0 3 3 3 3 1 1 1 1 2 2 2 2 4 4 1 4 3 3 3 3 2 2 2 2 5 5 4 5 3 3 3 3 4 4 1 4 6 6 5 6 5 5 4 5 4 4 1 4 7 7 6 7 5 5 4 5 6 6 5 6 3 3 3 3 8 8 4 8 1 1 1 1 9 9 7 9 8 8 4 8 3 3 3 3 5 5 4 5 9 9 7 9 3 3 3 3 10 10 8 10 9 9 7 9 5 5 4 5 7 7 6 7 10 10 8 10 5 5 4 5 11 11 9 11 10 10 8 10 7 7 6 7 14 14 12 14 13 13 11 13 12 12 10 12 15 15 13 15 13 13 11 13 14 14 12 14 16 16 14 16 15 15 13 15 14 14 12 14 17 17 15 17 15 15 13 15 16 16 14 16 18 18 16 18 17 17 15 17 16 16 14 16 19 19 17 19 17 17 15 17 18 18 16 18 21 21 19 21 10 10 8 10 20 20 18 20 8 8 4 8 10 10 8 10 21 21 19 21 22 22 20 22 8 8 4 8 21 21 19 21 1 1 1 1 8 8 4 8 22 22 20 22 25 25 22 25 24 24 17 24 23 23 21 23 19 19 17 19 24 24 17 24 25 25 22 25 17 17 15 17 19 19 17 19 25 25 22 25 25 25 22 25 15 15 13 15 17 17 15 17 13 13 11 13 15 15 13 15 25 25 22 25 23 23 21 23 13 13 11 13 25 25 22 25 10 10 8 10 8 8 4 8 9 9 7 9 26 26 23 26 4 4 1 4 2 2 2 2 14 14 12 14 27 27 10 27 16 16 14 16</p>
				</triangles>
			</mesh>
		</geometry>
	</library_geometries>
	<library_controllers>
		<controller id="polygon0_Controller">
			<skin source="#polygon0">
				<bind_shape_matrix>1 0 0 0 0 1 0 0 0 0 1 0 0 0 0 1</bind_shape_matrix>
				<source id="polygon0_Joints">
					<Name_array id="polygon0_JointArr" count="1">mario_body</Name_array>
					<technique_common>
						<accessor source="#polygon0_JointArr" count="1">
							<param name="JOINT" type="Name" />
						</accessor>
					</technique_common>
				</source>
				<source id="polygon0_Matrices">
					<float_array id="polygon0_MatArr" count="16">1 0 0 0 0 1 0 0 0 0 1 0 0 0 0 1</float_array>
					<technique_common>
						<accessor source="#polygon0_MatArr" count="1" stride="16">
							<param type="float4x4" />
						</accessor>
					</technique_common>
				</source>
				<source id="polygon0_Weights">
					<float_array id="polygon0_WeightArr" count="1">1</float_array>
					<technique_common>
						<accessor source="#polygon0_WeightArr" count="1">
							<param type="float" />
						</accessor>
					</technique_common>
				</source>
				<joints>
					<input semantic="JOINT" source="#polygon0_Joints" />
					<input semantic="INV_BIND_MATRIX" source="#polygon0_Matrices" />
				</joints>
				<vertex_weights count="344">
					<input semantic="JOINT" offset="0" source="#polygon0_Joints" />
					<input semantic="WEIGHT" offset="1" source="#polygon0_Weights" />
					<vcount>1 1 1 1 1 1 1 1 1 1 1 1 1 1 1 1 1 1 1 1 1 1 1 1 1 1 1 1 1 1 1 1 1 1 1 1 1 1 1 1 1 1 1 1 1 1 1 1 1 1 1 1 1 1 1 1 1 1 1 1 1 1 1 1 1 1 1 1 1 1 1 1 1 1 1 1 1 1 1 1 1 1 1 1 1 1 1 1 1 1 1 1 1 1 1 1 1 1 1 1 1 1 1 1 1 1 1 1 1 1 1 1 1 1 1 1 1 1 1 1 1 1 1 1 1 1 1 1 1 1 1 1 1 1 1 1 1 1 1 1 1 1 1 1 1 1 1 1 1 1 1 1 1 1 1 1 1 1 1 1 1 1 1 1 1 1 1 1 1 1 1 1 1 1 1 1 1 1 1 1 1 1 1 1 1 1 1 1 1 1 1 1 1 1 1 1 1 1 1 1 1 1 1 1 1 1 1 1 1 1 1 1 1 1 1 1 1 1 1 1 1 1 1 1 1 1 1 1 1 1 1 1 1 1 1 1 1 1 1 1 1 1 1 1 1 1 1 1 1 1 1 1 1 1 1 1 1 1 1 1 1 1 1 1 1 1 1 1 1 1 1 1 1 1 1 1 1 1 1 1 1 1 1 1 1 1 1 1 1 1 1 1 1 1 1 1 1 1 1 1 1 1 1 1 1 1 1 1 1 1 1 1 1 1 1 1 1 1 1 1 1 1 1 1 1 1 1 1 1 1 1 1 1 1 1 1 1 1 1 1 1 1 1 1</vcount>
					<v>0 0 0 0 0 0 0 0 0 0 0 0 0 0 0 0 0 0 0 0 0 0 0 0 0 0 0 0 0 0 0 0 0 0 0 0 0 0 0 0 0 0 0 0 0 0 0 0 0 0 0 0 0 0 0 0 0 0 0 0 0 0 0 0 0 0 0 0 0 0 0 0 0 0 0 0 0 0 0 0 0 0 0 0 0 0 0 0 0 0 0 0 0 0 0 0 0 0 0 0 0 0 0 0 0 0 0 0 0 0 0 0 0 0 0 0 0 0 0 0 0 0 0 0 0 0 0 0 0 0 0 0 0 0 0 0 0 0 0 0 0 0 0 0 0 0 0 0 0 0 0 0 0 0 0 0 0 0 0 0 0 0 0 0 0 0 0 0 0 0 0 0 0 0 0 0 0 0 0 0 0 0 0 0 0 0 0 0 0 0 0 0 0 0 0 0 0 0 0 0 0 0 0 0 0 0 0 0 0 0 0 0 0 0 0 0 0 0 0 0 0 0 0 0 0 0 0 0 0 0 0 0 0 0 0 0 0 0 0 0 0 0 0 0 0 0 0 0 0 0 0 0 0 0 0 0 0 0 0 0 0 0 0 0 0 0 0 0 0 0 0 0 0 0 0 0 0 0 0 0 0 0 0 0 0 0 0 0 0 0 0 0 0 0 0 0 0 0 0 0 0 0 0 0 0 0 0 0 0 0 0 0 0 0 0 0 0 0 0 0 0 0 0 0 0 0 0 0 0 0 0 0 0 0 0 0 0 0 0 0 0 0 0 0 0 0 0 0 0 0 0 0 0 0 0 0 0 0 0 0 0 0 0 0 0 0 0 0 0 0 0 0 0 0 0 0 0 0 0 0 0 0 0 0 0 0 0 0 0 0 0 0 0 0 0 0 0 0 0 0 0 0 0 0 0 0 0 0 0 0 0 0 0 0 0 0 0 0 0 0 0 0 0 0 0 0 0 0 0 0 0 0 0 0 0 0 0 0 0 0 0 0 0 0 0 0 0 0 0 0 0 0 0 0 0 0 0 0 0 0 0 0 0 0 0 0 0 0 0 0 0 0 0 0 0 0 0 0 0 0 0 0 0 0 0 0 0 0 0 0 0 0 0 0 0 0 0 0 0 0 0 0 0 0 0 0 0 0 0 0 0 0 0 0 0 0 0 0 0 0 0 0 0 0 0 0 0 0 0 0 0 0 0 0 0 0 0 0 0 0 0 0 0 0 0 0 0 0 0 0 0 0 0 0 0 0 0 0 0 0 0 0 0 0 0 0 0 0 0 0 0 0 0 0 0 0 0 0 0 0 0 0 0 0 0 0 0 0 0 0 0 0 0 0 0 0 0 0 0 0 0 0 0 0 0 0 0 0 0 0 0 0 0 0 0 0 0 0 0 0 0 0 0 0 0 0 0 0 0 0 0 0 0 0 0 0 0 0 0 0 0 0 0 0 0 0 0 0 0 0 0 0 0 0 0 0 0 0 0 0 0 0 0 0 0 0 0 0 0 0 0 0 0 0 0 0 0 0 0 0 0 0 0 0 0 0 0 0</v>
				</vertex_weights>
			</skin>
		</controller>
		<controller id="polygon1_Controller">
			<skin source="#polygon1">
				<bind_shape_matrix>1 0 0 0 0 1 0 0 0 0 1 0 0 0 0 1</bind_shape_matrix>
				<source id="polygon1_Joints">
					<Name_array id="polygon1_JointArr" count="1">mario_body</Name_array>
					<technique_common>
						<accessor source="#polygon1_JointArr" count="1">
							<param name="JOINT" type="Name" />
						</accessor>
					</technique_common>
				</source>
				<source id="polygon1_Matrices">
					<float_array id="polygon1_MatArr" count="16">1 0 0 0 0 1 0 0 0 0 1 0 0 0 0 1</float_array>
					<technique_common>
						<accessor source="#polygon1_MatArr" count="1" stride="16">
							<param type="float4x4" />
						</accessor>
					</technique_common>
				</source>
				<source id="polygon1_Weights">
					<float_array id="polygon1_WeightArr" count="1">1</float_array>
					<technique_common>
						<accessor source="#polygon1_WeightArr" count="1">
							<param type="float" />
						</accessor>
					</technique_common>
				</source>
				<joints>
					<input semantic="JOINT" source="#polygon1_Joints" />
					<input semantic="INV_BIND_MATRIX" source="#polygon1_Matrices" />
				</joints>
				<vertex_weights count="28">
					<input semantic="JOINT" offset="0" source="#polygon1_Joints" />
					<input semantic="WEIGHT" offset="1" source="#polygon1_Weights" />
					<vcount>1 1 1 1 1 1 1 1 1 1 1 1 1 1 1 1 1 1 1 1 1 1 1 1 1 1 1 1</vcount>
					<v>0 0 0 0 0 0 0 0 0 0 0 0 0 0 0 0 0 0 0 0 0 0 0 0 0 0 0 0 0 0 0 0 0 0 0 0 0 0 0 0 0 0 0 0 0 0 0 0 0 0 0 0 0 0 0 0</v>
				</vertex_weights>
			</skin>
		</controller>
	</library_controllers>
	<library_visual_scenes>
		<visual_scene id="RootNode" name="RootNode">
			<node id="mario_body" name="mario_body" sid="mario_body" type="JOINT" />
			<node id="polygon0" name="polygon0" type="NODE">
				<instance_controller url="#polygon0_Controller">
					<skeleton>#mario_body</skeleton>
					<bind_material>
						<technique_common>
							<instance_material symbol="mario_all_tx" target="#mario_all_tx">
								<bind_vertex_input semantic="TEXCOORD0" input_semantic="TEXCOORD" input_set="0" />
								<bind_vertex_input semantic="TEXCOORD0" input_semantic="TEXCOORD" input_set="0" />
								<bind_vertex_input semantic="TEXCOORD0" input_semantic="TEXCOORD" input_set="0" />
							</instance_material>
						</technique_common>
					</bind_material>
				</instance_controller>
			</node>
			<node id="polygon1" name="polygon1" type="NODE">
				<instance_controller url="#polygon1_Controller">
					<skeleton>#mario_body</skeleton>
					<bind_material>
						<technique_common>
							<instance_material symbol="mario_eye_tx" target="#mario_eye_tx">
								<bind_vertex_input semantic="TEXCOORD0" input_semantic="TEXCOORD" input_set="0" />
								<bind_vertex_input semantic="TEXCOORD0" input_semantic="TEXCOORD" input_set="0" />
								<bind_vertex_input semantic="TEXCOORD0" input_semantic="TEXCOORD" input_set="0" />
							</instance_material>
						</technique_common>
					</bind_material>
				</instance_controller>
			</node>
		</visual_scene>
	</library_visual_scenes>
	<scene>
		<instance_visual_scene url="#RootNode" />
	</scene>
</COLLADA>